<?xml version="1.0" encoding="utf-8"?>
<!-- Generator: Adobe Illustrator 28.3.0, SVG Export Plug-In . SVG Version: 6.00 Build 0)  -->
<svg version="1.1" id="Capa_1" xmlns="http://www.w3.org/2000/svg" xmlns:xlink="http://www.w3.org/1999/xlink" x="0px" y="0px"
	 viewBox="0 0 32 32" style="enable-background:new 0 0 32 32;" xml:space="preserve">
<style type="text/css">
	.st0{fill:#074B1E;}
	.st1{fill:#9F8D4B;}
</style>
<g>
	<path class="st0" d="M23.3,9.1l-0.7,1.5c2.6,2,4.1,5.2,3.9,8.8c-0.3,5.3-4.5,9.6-9.8,10c-1.3,0.1-2.4,0-3.5-0.4
		c-1.8-0.5-3.4-1.6-4.3-3.3c0-0.1-0.1-0.1-0.1-0.2c-0.9-1.8-1-3.8-0.3-5.5c0.1-0.2,0.2-0.4,0.3-0.6c1.1-2.1,3.2-3.3,5.5-3.3h0.1
		l5.2,0v6.2l-3.5-4.6l-1.3,0.9l3.8,5c0.4,0.5,1,0.7,1.6,0.5c0.6-0.2,0.9-0.7,0.9-1.3v-8.3l-6.8,0h-0.1c-2.9,0-5.5,1.6-6.9,4.1
		c-0.1,0.2-0.3,0.5-0.4,0.8c-0.5,1.3-0.7,2.8-0.4,4.3c-0.8-1.5-1.2-3.1-1.2-4.9c0-3.4,1.5-6.3,3.9-8.2L8.7,9.1c-3,2.3-5,6-4.8,10.3
		C4.1,25.6,9.1,30.7,15.3,31c7,0.4,12.8-5.2,12.8-12.1C28.1,14.9,26.2,11.4,23.3,9.1z"/>
	<path class="st0" d="M6.1,7L5.3,5.4C2.6,8.2,1,11.9,1,16c0,4.5,2,8.6,5.2,11.3C4.2,25.1-1.6,14.7,6.1,7z"/>
	<path class="st0" d="M25.9,7l0.7-1.6C29.4,8.2,31,11.9,31,16c0,4.5-2,8.6-5.2,11.3C27.7,25.1,33.6,14.7,25.9,7z"/>
	<path class="st0" d="M24.2,8.8l0.7-1.5c0.4,0.3,3.7,2.8,3.7,8.2C27.8,12.9,26.3,10.5,24.2,8.8z"/>
	<path class="st0" d="M7.8,8.8L7.1,7.2c-0.3,0.3-3.7,2.8-3.7,8.2C4.1,12.9,5.6,10.5,7.8,8.8z"/>
	<path class="st1" d="M16,7.3c1.7,0,3.2,0.3,4.7,0.9L22,1.4l-1.5,1.5c0.2,0.3,0.3,0.7,0.3,1.1c0,1.1-0.9,1.9-1.9,1.9
		C17.8,5.9,17,5,17,4c0-0.5,0.2-1,0.6-1.4L16,1l-1.6,1.6C14.7,2.9,15,3.4,15,4C15,5,14.1,5.9,13,5.9c-1,0-1.9-0.9-1.9-1.9
		c0-0.4,0.1-0.8,0.4-1.1L10,1.4l1.3,6.9C12.8,7.6,14.3,7.3,16,7.3z"/>
</g>
</svg>
