<?xml version="1.0" encoding="UTF-8"?>
<svg xmlns="http://www.w3.org/2000/svg" version="1.1" viewBox="0 0 263.7 263.7">
  <defs>
    <style>
      .cls-1 {
        fill: #fff;
      }
    </style>
  </defs>
  <!-- Generator: Adobe Illustrator 28.6.0, SVG Export Plug-In . SVG Version: 1.2.0 Build 709)  -->
  <g>
    <g id="Capa_1">
      <g>
        <path class="cls-1" d="M176.6,89.5l-4.3,9.2c15.9,12.3,25.1,31.9,23.9,54-1.8,32.5-27.6,58.9-60.1,61.3-8,.6-14.7,0-21.5-2.5-11-3.1-20.9-9.8-26.4-20.2,0-.6-.6-.6-.6-1.2-5.5-11-6.1-23.3-1.8-33.7l1.8-3.7c6.7-12.9,19.6-20.2,33.7-20.2h32.5v38l-21.5-28.2-8,5.5,23.3,30.7c2.5,3.1,6.1,4.3,9.8,3.1s5.5-4.3,5.5-8v-50.9h-42.3c-17.8,0-33.7,9.8-42.3,25.1-.6,1.2-1.8,3.1-2.5,4.9-3.1,8-4.3,17.2-2.5,26.4-4.9-9.2-7.4-19-7.4-30.1,0-20.9,9.2-38.6,23.9-50.3l-3.1-9.2c-18.4,14.1-30.7,36.8-29.4,63.2,1.2,38,31.9,69.3,69.9,71.1,42.9,2.5,78.5-31.9,78.5-74.2s-11.7-46-29.4-60.1Z"/>
        <path class="cls-1" d="M71.2,76.6l-4.9-9.8c-16.6,17.2-26.4,39.9-26.4,65s12.3,52.7,31.9,69.3c-12.3-13.5-47.8-77.3-.6-124.5Z"/>
        <path class="cls-1" d="M192.6,76.6l4.3-9.8c17.2,17.2,27,39.9,27,65s-12.3,52.7-31.9,69.3c11.7-13.5,47.8-77.3.6-124.5Z"/>
        <path class="cls-1" d="M182.2,87.7l4.3-9.2c2.5,1.8,22.7,17.2,22.7,50.3-4.9-15.9-14.1-30.7-27-41.1Z"/>
        <path class="cls-1" d="M81.6,87.7l-4.3-9.8c-1.8,1.8-22.7,17.2-22.7,50.3,4.3-15.3,13.5-30.1,27-40.5Z"/>
        <path class="cls-1" d="M131.9,78.5c10.4,0,19.6,1.8,28.8,5.5l8-41.7-9.2,9.2c1.2,1.8,1.8,4.3,1.8,6.7,0,6.7-5.5,11.7-11.7,11.7s-11.7-5.5-11.7-11.7,1.2-6.1,3.7-8.6l-9.8-9.8-9.8,9.8c1.8,1.8,3.7,4.9,3.7,8.6,0,6.1-5.5,11.7-12.3,11.7s-11.7-5.5-11.7-11.7.6-4.9,2.5-6.7l-9.2-9.2,8,42.3c9.2-4.3,18.4-6.1,28.8-6.1Z"/>
      </g>
    </g>
  </g>
</svg>