<?xml version="1.0" encoding="utf-8"?>
<!-- Generator: Adobe Illustrator 28.3.0, SVG Export Plug-In . SVG Version: 6.00 Build 0)  -->
<svg version="1.1" id="Capa_1" xmlns="http://www.w3.org/2000/svg" xmlns:xlink="http://www.w3.org/1999/xlink" x="0px" y="0px"
	 viewBox="0 0 1133.91 379.62" style="enable-background:new 0 0 1133.91 379.62;" xml:space="preserve">
<style type="text/css">
	.st0{fill:#FFFFFF;}
</style>
<g>
	<path class="st0" d="M259.76,127.05l-6.07,13.76c23.07,18.22,37.24,47.36,35.62,79.34c-2.43,47.77-40.48,86.63-88.25,90.27
		c-11.33,0.81-21.86-0.4-31.98-3.24c-16.19-4.45-30.36-14.57-38.46-29.55c-0.4-0.81-0.81-1.21-0.81-2.02
		c-8.1-16.19-8.91-34.41-2.83-49.79c0.81-2.02,1.62-3.64,2.43-5.26c9.72-18.62,28.74-29.95,49.38-29.95h0.81l46.96,0.4v56.27
		l-31.17-41.29l-11.74,8.5l34,44.93c3.64,4.45,9.31,6.48,14.57,4.45c5.26-1.62,8.5-6.48,8.5-12.14v-74.89l-61.12-0.4h-0.81
		c-25.91,0-49.79,14.17-61.93,37.24c-1.21,2.02-2.43,4.45-3.24,6.88c-4.86,12.14-6.07,25.5-4.05,38.86
		c-6.88-13.36-10.93-28.34-10.93-44.12c0-30.36,13.76-57.08,35.62-74.48l-6.07-13.76c-27.53,21.05-45.34,54.65-43.72,92.7
		c2.02,56.27,47.36,102.01,103.63,104.84c63.15,3.64,115.77-46.96,115.77-109.29C303.89,179.27,286.48,147.29,259.76,127.05z"/>
	<path class="st0" d="M104.32,108.02l-6.48-14.17c-24.29,24.69-39.26,58.29-39.26,95.53c0,40.88,17.81,77.32,46.55,102.41
		C87.73,271.56,35.1,177.65,104.32,108.02z"/>
	<path class="st0" d="M284.05,108.02l6.48-14.17c24.29,24.69,39.27,58.29,39.27,95.53c0,40.88-18.22,77.32-46.55,102.41
		C300.24,271.56,353.27,177.65,284.05,108.02z"/>
	<path class="st0" d="M267.86,123.81l6.07-13.76c3.24,2.83,33.6,25.5,33.6,74.48C301.05,161.05,287.29,139.6,267.86,123.81z"/>
	<path class="st0" d="M120.11,123.81l-6.07-13.76c-2.83,2.83-33.6,25.5-33.6,74.48C86.92,161.05,100.68,139.6,120.11,123.81z"/>
	<path class="st0" d="M194.19,110.86c14.98,0,29.15,2.83,42.1,8.5l12.14-61.93l-13.36,13.36c1.62,2.83,2.83,6.07,2.83,9.71
		c0,9.72-7.69,17.41-17.41,17.41c-9.72,0-17.41-7.69-17.41-17.41c0-4.86,2.02-9.31,5.26-12.55l-14.17-14.17l-14.57,14.17
		c3.24,3.24,5.26,7.69,5.26,12.55c0,9.72-7.69,17.41-17.41,17.41c-9.31,0-17.41-7.69-17.41-17.41c0-3.64,1.21-6.88,3.24-9.71
		l-13.36-13.36l12.14,61.93C165.04,113.69,179.21,110.86,194.19,110.86z"/>
	<path class="st0" d="M453.01,81.95c-1.36,0-2.71,0-3.39,1.36c-1.36,1.35-2.03,3.39-2.03,6.77v48.1c0,3.39,0.68,6.1,2.03,7.45
		c0.68,0.68,2.03,1.35,3.39,1.35h0.68v0.68h-21v-0.68c1.35,0,2.71-0.68,4.06-1.35c1.35-1.35,2.03-4.06,2.03-7.45v-27.1h-37.26v27.1
		c0,3.39,0.68,6.1,2.03,7.45c1.35,0.68,2.03,1.35,4.06,1.35v0.68h-21v-0.68c2.03,0,3.39-0.68,4.06-1.35
		c1.35-1.35,2.03-4.06,2.03-7.45v-48.1c0-3.39-0.68-5.42-2.03-6.77c-0.68-1.36-2.03-1.36-4.06-1.36v-0.68h21v0.68
		c-1.36,0-2.71,0-4.06,1.36c-1.35,1.35-2.03,3.39-2.03,6.77v19.65h37.26V90.08c0-3.39-0.68-5.42-2.03-6.77
		c-1.36-1.36-2.71-1.36-4.06-1.36v-0.68h21v0.68H453.01z"/>
	<path class="st0" d="M503.82,121.92h-25.07l-5.42,15.58c-1.35,3.39-1.35,6.1,0,7.45c0.68,1.36,2.71,2.03,4.74,2.03h0.68v0.68
		h-16.94v-0.68c4.06,0,6.77-2.71,8.81-8.13l21.68-57.58h3.39l25.07,57.58c2.03,4.74,4.06,6.77,7.45,7.45l0.68,0.68h1.35v0.68h-23.71
		v-0.68h1.36c1.35-0.68,2.71-0.68,3.39-2.03c0.68-0.68,0.68-2.71-0.68-6.1L503.82,121.92z M503.14,120.57l-12.87-29.81l-10.84,29.81
		H503.14z"/>
	<path class="st0" d="M553.28,115.82v22.36c0,3.39,0.68,6.1,2.03,7.45c0.68,0.68,2.03,1.35,4.06,1.35v0.68h-21v-0.68
		c1.35,0,2.71-0.68,4.06-1.35c1.35-1.35,2.03-4.06,2.03-7.45v-48.1c0-3.39-0.68-5.42-2.03-6.77s-2.03-1.35-4.06-1.35v-0.68h29.13
		c14.9,0,23.03,6.1,23.03,16.94c0,9.48-7.45,16.26-20.32,17.61h-2.03l2.03,1.35l0.68,0.68l0.68,0.68c2.71,1.35,4.74,3.39,6.77,5.42
		c0.68,0.68,1.36,1.35,1.36,2.03l1.35,2.03l2.03,2.71c2.03,2.71,4.06,6.1,6.77,8.81c2.03,2.71,5.42,6.77,9.48,7.45v0.68
		c-0.68,0-4.74,0-6.1,0h-1.35c-10.16,0-12.87-6.77-16.94-14.9l-0.68-0.68c-0.68-2.03-2.03-4.06-2.71-6.1
		c-1.35-2.71-3.39-4.74-6.1-6.77c-0.68-0.68-2.03-1.35-2.71-2.03l-0.68-0.68h-0.68v-0.68H553.28z M553.28,114.47h11.52
		c10.16,0,16.26-6.1,16.26-16.26c0-5.42-1.35-8.81-3.39-11.52c-2.03-2.71-5.42-4.06-10.16-4.06h-14.23V114.47z"/>
	<path class="st0" d="M648.8,121.92h-24.39l-6.1,15.58c-0.68,3.39-1.35,6.1,0,7.45c1.36,1.36,2.71,2.03,4.74,2.03h0.68v0.68H606.8
		v-0.68c4.06,0,6.77-2.71,8.81-8.13l21.68-57.58h3.39l25.07,57.58c2.03,4.74,4.74,6.77,7.45,7.45l0.68,0.68h1.35v0.68h-23.71v-0.68
		c0.68,0,1.35,0,1.35,0c1.35-0.68,2.71-0.68,3.39-2.03c0.68-0.68,0.68-2.71,0-6.1L648.8,121.92z M648.12,120.57l-12.87-29.81
		l-10.84,29.81H648.12z"/>
	<path class="st0" d="M732.8,129.37c0,2.03-0.68,4.06-1.36,6.77c-2.03,4.74-7.45,8.13-10.16,9.48c-4.06,1.36-8.13,2.71-13.55,2.71
		c-2.71,0-5.42-0.68-8.13-1.35c-6.1-1.36-10.84-3.39-10.84-3.39h-1.35c-0.68,0-1.36,0-1.36,0.68h-1.35v-16.94h0.68
		c2.71,9.48,6.77,14.9,12.87,17.61c2.03,0.68,4.74,1.35,6.77,2.03c0.68,0,1.35,0,2.03,0c6.1,0,12.87-2.03,16.26-8.13
		c3.39-6.1,0-12.87-5.42-16.26c-2.71-2.03-6.1-2.71-8.81-4.06l-2.71-0.68c-6.77-2.71-14.9-5.42-18.97-10.84
		c-4.06-5.42-4.06-13.55,0.68-18.97c1.35-2.03,3.39-3.39,5.42-4.74c3.39-2.03,8.13-3.39,13.55-3.39c4.74,0,10.84,1.35,15.58,3.39
		c0,0,0.68,0,1.35,0c0.68,0,1.36,0,2.03-0.68h0.68v15.58h-0.68c-0.68-3.39-3.39-8.81-6.1-11.52c-2.03-2.03-5.42-4.06-8.81-4.74
		c-1.35,0-2.71,0-4.74,0c-1.35,0-2.71,0-4.06,0c-4.74,1.35-10.16,5.42-10.16,11.52c0,9.48,11.52,13.55,16.26,14.9l1.35,0.68
		c6.77,2.03,13.55,4.74,18.29,9.48C731.45,121.24,732.8,125.31,732.8,129.37z"/>
	<path class="st0" d="M415.07,238.45h-28.45v-0.68h0.68c1.35,0,2.71-0.68,3.39-1.36c1.35-1.35,2.03-4.06,2.03-7.45v-48.1
		c0-3.39-0.68-6.1-2.03-6.77c-0.68-1.35-2.03-1.35-4.06-1.35v-0.68h25.07c22.36,0,35.91,12.19,35.91,33.2
		C447.59,226.25,435.4,238.45,415.07,238.45z M401.53,237.09h13.55c14.9,0,23.03-11.52,23.03-31.84c0-20.32-9.48-31.84-26.42-31.84
		h-10.16V237.09z"/>
	<path class="st0" d="M525.5,204.57c0,10.16-3.39,18.29-9.48,25.07c-6.77,6.1-14.9,9.48-23.71,9.48c-9.48,0-17.61-3.39-23.71-9.48
		c-6.1-6.77-9.48-14.9-9.48-25.07c0-10.16,4.06-18.29,10.84-25.07c6.77-5.42,14.23-8.81,23.03-8.81c8.81,0,16.26,3.39,23.03,10.16
		C522.11,186.96,525.5,195.09,525.5,204.57z M516.02,205.93c0-11.52-2.71-20.32-7.45-26.42c-4.06-4.74-9.48-6.77-16.26-6.77
		c-6.77,0-12.19,2.03-16.26,6.77c-4.74,5.42-6.77,14.23-6.77,25.07c0,10.84,2.03,19.65,7.45,25.74c4.06,4.74,8.81,7.45,15.58,7.45
		c6.77,0,12.19-2.71,16.94-8.13C513.31,224.9,516.02,216.77,516.02,205.93z"/>
	<path class="st0" d="M595.96,172.05v0.68c-2.03,0-3.39,0-4.06,0.68c-1.36,1.35-2.03,4.06-2.03,7.45v57.58h-3.39l-3.39-5.42
		l-40.65-55.55v51.49c0,3.39,0.68,6.1,2.03,7.45c1.36,0.68,2.03,1.35,4.06,1.35v0.68h-14.23v-0.68c2.03,0,3.39-0.68,4.06-1.35
		c1.35-1.35,2.03-4.06,2.03-7.45v-48.1c0-3.39-0.68-5.42-2.03-6.77c-0.68-1.35-2.03-1.35-3.39-1.35h-0.68v-0.68h14.23l39.29,53.52
		v-44.71c0-3.39-0.68-5.42-2.03-6.77c-0.68-1.35-2.03-1.35-3.39-1.35h-0.68v-0.68H595.96z"/>
	<path class="st0" d="M675.9,237.43c-3.39,0.68-7.45,2.03-11.52,2.03c-0.68,0-1.36,0-2.71,0c-5.42,0-14.23-0.68-21-4.74
		c-3.39-1.35-6.77-4.06-8.81-7.45c-4.74-6.1-7.45-14.23-7.45-23.03c0.68-11.52,6.77-22.36,16.94-28.45
		c6.1-3.39,12.87-4.74,17.61-4.74c1.35,0,2.71,0.68,4.06,0.68c2.71,0,5.42,0.68,8.13,1.35c1.36,0,2.71,0.68,4.74,0.68v0.68h0.68
		h1.35c1.35,0.68,2.71,0.68,3.39,0h0.68v15.58h-0.68c0-0.68,0-1.35-0.68-2.03c-2.03-4.74-4.74-9.48-8.81-11.52
		c-3.39-2.71-8.13-3.39-12.19-3.39c-6.77,0-12.87,2.03-16.94,6.77c-5.42,5.42-8.81,14.23-8.13,24.39c0,6.1,1.35,12.87,3.39,17.61
		c2.71,5.42,6.1,9.48,10.16,12.19c1.35,0.68,2.71,1.35,4.06,2.03c3.39,1.35,6.77,2.03,10.16,2.03c2.71,0,5.42-0.68,7.45-1.36
		c2.03-0.68,4.06-1.35,6.1-2.71c1.35-1.35,3.39-2.71,4.74-4.74c0.68-0.68,1.35-2.03,2.03-3.39l0.68-1.35h0.68l-2.71,10.84
		C679.28,236.75,677.25,237.43,675.9,237.43z"/>
	<path class="st0" d="M732.8,213.04h-24.39l-6.1,15.58c-0.68,3.39-1.35,6.1,0,7.45c1.36,1.36,2.71,2.03,4.74,2.03h0.68v0.68H690.8
		v-0.68c4.06,0,6.77-2.71,8.81-8.13l21.68-57.58h3.39l25.07,57.58c2.71,4.74,4.74,6.77,7.45,7.45l0.68,0.68h1.35v0.68h-23.71v-0.68
		c0.68,0,1.36,0,2.03,0c1.35-0.68,2.03-0.68,2.71-2.03c0.68-0.68,0.68-2.71,0-6.1L732.8,213.04z M732.13,211.69l-12.19-29.81
		l-11.52,29.81H732.13z"/>
	<path class="st0" d="M829,172.39v0.68c-2.03,0-2.71,0-4.06,0.68c-0.68,1.35-2.03,4.06-2.03,7.45v57.58h-2.71l-4.06-5.42
		l-40.65-55.55v51.49c0,3.39,0.68,6.1,2.03,7.45c1.36,0.68,2.71,1.35,4.06,1.35v0.68h-14.23v-0.68c2.03,0,3.39-0.68,4.06-1.35
		c1.35-1.35,2.03-4.06,2.03-7.45v-48.1c0-3.39-0.68-5.42-2.03-7.45c-0.68-0.68-2.03-0.68-3.39-0.68h-0.68v-0.68h14.23l39.97,53.52
		l-0.68-44.71c0-3.39,0-5.42-2.03-6.77c-0.68-1.35-2.03-1.35-3.39-1.35h-0.68v-0.68H829z"/>
	<path class="st0" d="M867.62,238.78h-29.13v-0.68h0.68c1.35,0,2.71-0.68,3.39-1.36c1.35-1.35,2.03-4.06,2.03-7.45v-48.1
		c0-3.39-0.68-6.1-2.03-6.77c-0.68-1.35-2.03-1.35-3.39-1.35h-0.68v-0.68h25.07c23.03,0,35.91,12.19,35.91,33.2
		C899.46,226.59,887.94,238.78,867.62,238.78z M854.07,237.43h13.55c14.23,0,23.03-11.52,23.03-31.84
		c0-20.32-10.16-31.84-27.1-31.84h-9.48V237.43z"/>
	<path class="st0" d="M929.27,173.07c-1.36,0-2.71,0-3.39,1.36c-1.36,1.35-2.03,3.39-2.03,6.77v48.1c0,3.39,0.68,6.1,2.03,7.45
		c0.68,0.68,2.03,1.35,3.39,1.35h0.68v0.68h-21.68v-0.68c2.03,0,3.39-0.68,4.06-1.35c1.35-1.35,2.03-4.06,2.03-7.45v-48.1
		c0-3.39-0.68-5.42-2.03-7.45c-0.68-0.68-2.03-0.68-3.39-0.68h-0.68v-0.68h21.68v0.68H929.27z"/>
	<path class="st0" d="M967.88,238.78h-29.13v-0.68h0.68c1.35,0,2.71-0.68,3.39-1.36c2.03-1.35,2.03-4.06,2.03-7.45v-48.1
		c0-3.39,0-6.1-2.03-6.77c-0.68-1.35-2.03-1.35-3.39-1.35h-0.68v-0.68h25.07c23.03,0,36.58,12.19,36.58,33.2
		C1000.4,226.59,988.21,238.78,967.88,238.78z M954.33,237.43h13.55c14.9,0,23.03-11.52,23.03-31.84c0-20.32-9.48-31.84-27.1-31.84
		h-9.48V237.43z"/>
	<path class="st0" d="M1078.31,204.91c0,10.16-3.39,18.29-9.48,24.39c-6.77,6.77-14.9,10.16-23.71,10.16
		c-9.48,0-17.61-3.39-23.71-9.48c-6.1-6.77-9.48-14.9-9.48-25.07c0-10.16,3.39-18.29,10.84-25.07c6.77-5.42,14.23-8.81,23.03-8.81
		s16.26,3.39,23.03,10.16C1074.92,187.3,1078.31,195.43,1078.31,204.91z M1068.83,206.27c0-11.52-2.71-20.32-7.45-26.42
		c-4.06-4.74-9.48-6.77-16.26-6.77c-6.77,0-12.19,2.03-16.26,6.77c-4.74,5.42-6.77,14.23-6.77,25.07c0,10.84,2.03,19.65,7.45,25.74
		c3.39,4.74,8.81,7.45,15.58,7.45c6.77,0,12.19-2.71,16.94-8.13C1066.12,225.23,1068.83,217.11,1068.83,206.27z"/>
	<path class="st0" d="M385.94,263.64h13.55c7.45,0,12.87,4.74,12.87,11.52c0,7.45-6.1,11.52-13.55,11.52h-8.81v12.19h-4.06V263.64z
		 M398.82,283.28c5.42,0,9.48-3.39,9.48-8.13c0-4.74-3.39-7.45-9.48-7.45h-8.81v15.58H398.82z"/>
	<polygon class="st0" points="424.56,263.64 450.3,263.64 450.3,267.7 428.62,267.7 428.62,279.22 447.59,279.22 447.59,283.28 
		428.62,283.28 428.62,295.48 450.3,295.48 450.3,298.86 424.56,298.86 	"/>
	<path class="st0" d="M461.82,281.25L461.82,281.25c0-9.48,6.77-18.29,17.61-18.29c6.1,0,9.48,2.03,12.87,4.74l-2.71,3.39
		c-2.71-2.71-5.42-4.06-10.16-4.06c-8.13,0-13.55,6.77-13.55,14.23c0,8.81,5.42,14.9,13.55,14.9c4.06,0,8.13-2.03,10.16-3.39v-8.81
		h-10.16v-4.06h14.23v14.23c-3.39,2.71-8.13,5.42-14.23,5.42C468.59,299.54,461.82,291.41,461.82,281.25z"/>
	<path class="st0" d="M520.76,263.64h3.39l16.26,35.23h-4.06l-4.74-9.48h-18.97l-4.06,9.48h-4.06L520.76,263.64z M530.24,285.99
		l-8.13-17.61l-7.45,17.61H530.24z"/>
	<path class="st0" d="M549.21,294.12l2.71-3.39c3.39,3.39,6.77,5.42,11.52,5.42c4.74,0,8.13-2.71,8.13-6.1s-2.03-5.42-9.48-6.77
		c-7.45-2.03-11.52-4.74-11.52-10.16c0-5.42,4.74-9.48,11.52-9.48c5.42,0,8.81,1.35,12.19,4.06l-2.03,2.71
		c-3.39-2.03-6.77-3.39-10.16-3.39c-4.74,0-7.45,2.71-7.45,5.42c0,3.39,2.03,5.42,9.48,6.77c8.13,2.03,11.52,4.74,11.52,10.16
		c0,6.1-5.42,10.16-12.19,10.16C558.02,299.54,553.28,297.51,549.21,294.12z"/>
	<path class="st0" d="M587.83,283.96v-20.32h4.06v20.32c0,7.45,4.06,12.19,10.84,12.19c6.77,0,10.84-4.06,10.84-12.19v-20.32h4.06
		v20.32c0,10.16-6.1,15.58-14.9,15.58C593.92,299.54,587.83,294.12,587.83,283.96z"/>
	<path class="st0" d="M629.15,294.12l2.71-3.39c3.39,3.39,7.45,5.42,12.19,5.42s7.45-2.71,7.45-6.1s-1.36-5.42-8.81-6.77
		c-8.13-2.03-12.19-4.74-12.19-10.16c0-5.42,5.42-9.48,11.52-9.48c5.42,0,8.81,1.35,12.87,4.06l-2.71,2.71
		c-3.39-2.03-6.1-3.39-10.16-3.39c-4.06,0-7.45,2.71-7.45,5.42c0,3.39,2.03,5.42,9.48,6.77c8.13,2.03,11.52,4.74,11.52,10.16
		c0,6.1-4.74,10.16-11.52,10.16C637.96,299.54,633.89,297.51,629.15,294.12z"/>
</g>
</svg>
