<?xml version="1.0" encoding="utf-8"?>
<!-- Generator: Adobe Illustrator 28.3.0, SVG Export Plug-In . SVG Version: 6.00 Build 0)  -->
<svg version="1.1" id="Capa_1" xmlns="http://www.w3.org/2000/svg" xmlns:xlink="http://www.w3.org/1999/xlink" x="0px" y="0px"
	 viewBox="0 0 1200 601.23" style="enable-background:new 0 0 1200 601.23;" xml:space="preserve">
<style type="text/css">
	.st0{fill:#1D3524;}
	.st1{fill:#9E8B4A;}
</style>
<g>
	<path class="st0" d="M490.05,224.82l-7.4,16.76c28.1,22.19,45.36,57.69,43.39,96.64c-2.96,58.18-49.3,105.51-107.48,109.95
		c-13.81,0.99-26.62-0.49-38.95-3.94c-19.72-5.42-36.98-17.75-46.84-35.99c-0.49-0.99-0.99-1.48-0.99-2.47
		c-9.86-19.72-10.85-41.91-3.45-60.64c0.99-2.47,1.97-4.44,2.96-6.41c11.83-22.68,35.01-36.48,60.15-36.48h0.99l57.19,0.49v68.53
		l-37.96-50.29l-14.3,10.35l41.42,54.73c4.44,5.42,11.34,7.89,17.75,5.42c6.41-1.97,10.35-7.89,10.35-14.79v-91.21l-74.45-0.49
		h-0.99c-31.55,0-60.64,17.26-75.44,45.36c-1.48,2.47-2.96,5.42-3.94,8.38c-5.92,14.79-7.4,31.06-4.93,47.33
		c-8.38-16.27-13.31-34.51-13.31-53.74c0-36.98,16.76-69.52,43.39-90.72l-7.4-16.76c-33.53,25.64-55.22,66.56-53.25,112.91
		c2.47,68.53,57.69,124.25,126.22,127.7c76.91,4.44,141.01-57.19,141.01-133.12C543.79,288.42,522.59,249.47,490.05,224.82z"/>
	<path class="st0" d="M300.72,201.65l-7.89-17.26c-29.58,30.08-47.82,71-47.82,116.36c0,49.8,21.69,94.17,56.7,124.74
		C280.51,400.84,216.41,286.45,300.72,201.65z"/>
	<path class="st0" d="M519.63,201.65l7.89-17.26c29.58,30.08,47.82,71,47.82,116.36c0,49.8-22.19,94.17-56.7,124.74
		C539.36,400.84,603.94,286.45,519.63,201.65z"/>
	<path class="st0" d="M499.91,220.88l7.4-16.76c3.94,3.45,40.92,31.06,40.92,90.72C540.34,266.24,523.58,240.11,499.91,220.88z"/>
	<path class="st0" d="M319.95,220.88l-7.4-16.76c-3.45,3.45-40.92,31.06-40.92,90.72C279.52,266.24,296.29,240.11,319.95,220.88z"/>
	<path class="st1" d="M410.18,205.1c18.24,0,35.5,3.45,51.28,10.35l14.79-75.44l-16.27,16.27c1.97,3.45,3.45,7.4,3.45,11.83
		c0,11.83-9.37,21.2-21.2,21.2s-21.2-9.37-21.2-21.2c0-5.92,2.47-11.34,6.41-15.28l-17.26-17.26l-17.75,17.26
		c3.94,3.94,6.41,9.37,6.41,15.28c0,11.83-9.37,21.2-21.2,21.2c-11.34,0-21.2-9.37-21.2-21.2c0-4.44,1.48-8.38,3.94-11.83
		l-16.27-16.27l14.79,75.44C374.68,208.55,391.94,205.1,410.18,205.1z"/>
	<path class="st0" d="M673.46,205.59c-0.99,0-1.97,0-2.47,0.99c-0.99,0.99-1.48,2.47-1.48,4.93v35.01c0,2.47,0.49,4.44,1.48,5.42
		c0.49,0.49,1.48,0.99,2.47,0.99h0.49v0.49h-15.28v-0.49c0.99,0,1.97-0.49,2.96-0.99c0.99-0.99,1.48-2.96,1.48-5.42v-19.72h-27.12
		v19.72c0,2.47,0.49,4.44,1.48,5.42c0.99,0.49,1.48,0.99,2.96,0.99v0.49h-15.28v-0.49c1.48,0,2.47-0.49,2.96-0.99
		c0.99-0.99,1.48-2.96,1.48-5.42v-35.01c0-2.47-0.49-3.94-1.48-4.93c-0.49-0.99-1.48-0.99-2.96-0.99v-0.49h15.28v0.49
		c-0.99,0-1.97,0-2.96,0.99c-0.99,0.99-1.48,2.47-1.48,4.93v14.3h27.12v-14.3c0-2.47-0.49-3.94-1.48-4.93
		c-0.99-0.99-1.97-0.99-2.96-0.99v-0.49h15.28v0.49H673.46z"/>
	<path class="st0" d="M710.44,234.68H692.2l-3.94,11.34c-0.99,2.47-0.99,4.44,0,5.42c0.49,0.99,1.97,1.48,3.45,1.48h0.49v0.49
		h-12.33v-0.49c2.96,0,4.93-1.97,6.41-5.92l15.78-41.91h2.47l18.24,41.91c1.48,3.45,2.96,4.93,5.42,5.42l0.49,0.49h0.99v0.49h-17.26
		v-0.49h0.99c0.99-0.49,1.97-0.49,2.47-1.48c0.49-0.49,0.49-1.97-0.49-4.44L710.44,234.68z M709.95,233.7L700.58,212l-7.89,21.69
		H709.95z"/>
	<path class="st0" d="M746.43,230.25v16.27c0,2.47,0.49,4.44,1.48,5.42c0.49,0.49,1.48,0.99,2.96,0.99v0.49h-15.28v-0.49
		c0.99,0,1.97-0.49,2.96-0.99c0.99-0.99,1.48-2.96,1.48-5.42v-35.01c0-2.47-0.49-3.94-1.48-4.93c-0.99-0.99-1.48-0.99-2.96-0.99
		v-0.49h21.2c10.85,0,16.76,4.44,16.76,12.33c0,6.9-5.42,11.83-14.79,12.82h-1.48l1.48,0.99l0.49,0.49l0.49,0.49
		c1.97,0.99,3.45,2.47,4.93,3.94c0.49,0.49,0.99,0.99,0.99,1.48l0.99,1.48l1.48,1.97c1.48,1.97,2.96,4.44,4.93,6.41
		c1.48,1.97,3.94,4.93,6.9,5.42v0.49c-0.49,0-3.45,0-4.44,0h-0.99c-7.4,0-9.37-4.93-12.33-10.85l-0.49-0.49
		c-0.49-1.48-1.48-2.96-1.97-4.44c-0.99-1.97-2.47-3.45-4.44-4.93c-0.49-0.49-1.48-0.99-1.97-1.48l-0.49-0.49h-0.49v-0.49H746.43z
		 M746.43,229.26h8.38c7.4,0,11.83-4.44,11.83-11.83c0-3.94-0.99-6.41-2.47-8.38c-1.48-1.97-3.94-2.96-7.4-2.96h-10.35V229.26z"/>
	<path class="st0" d="M815.95,234.68H798.2l-4.44,11.34c-0.49,2.47-0.99,4.44,0,5.42c0.99,0.99,1.97,1.48,3.45,1.48h0.49v0.49
		h-12.33v-0.49c2.96,0,4.93-1.97,6.41-5.92l15.78-41.91h2.47l18.24,41.91c1.48,3.45,3.45,4.93,5.42,5.42l0.49,0.49h0.99v0.49h-17.26
		v-0.49c0.49,0,0.99,0,0.99,0c0.99-0.49,1.97-0.49,2.47-1.48c0.49-0.49,0.49-1.97,0-4.44L815.95,234.68z M815.46,233.7L806.09,212
		l-7.89,21.69H815.46z"/>
	<path class="st0" d="M877.09,240.11c0,1.48-0.49,2.96-0.99,4.93c-1.48,3.45-5.42,5.92-7.4,6.9c-2.96,0.99-5.92,1.97-9.86,1.97
		c-1.97,0-3.94-0.49-5.92-0.99c-4.44-0.99-7.89-2.47-7.89-2.47h-0.99c-0.49,0-0.99,0-0.99,0.49h-0.99v-12.33h0.49
		c1.97,6.9,4.93,10.85,9.37,12.82c1.48,0.49,3.45,0.99,4.93,1.48c0.49,0,0.99,0,1.48,0c4.44,0,9.37-1.48,11.83-5.92
		c2.47-4.44,0-9.37-3.94-11.83c-1.97-1.48-4.44-1.97-6.41-2.96l-1.97-0.49c-4.93-1.97-10.85-3.94-13.81-7.89
		c-2.96-3.94-2.96-9.86,0.49-13.81c0.99-1.48,2.47-2.47,3.94-3.45c2.47-1.48,5.92-2.47,9.86-2.47c3.45,0,7.89,0.99,11.34,2.47
		c0,0,0.49,0,0.99,0c0.49,0,0.99,0,1.48-0.49h0.49v11.34h-0.49c-0.49-2.47-2.47-6.41-4.44-8.38c-1.48-1.48-3.94-2.96-6.41-3.45
		c-0.99,0-1.97,0-3.45,0c-0.99,0-1.97,0-2.96,0c-3.45,0.99-7.4,3.94-7.4,8.38c0,6.9,8.38,9.86,11.83,10.85l0.99,0.49
		c4.93,1.48,9.86,3.45,13.31,6.9C876.1,234.19,877.09,237.15,877.09,240.11z"/>
	<path class="st0" d="M645.85,319.49h-20.71v-0.49h0.49c0.99,0,1.97-0.49,2.47-0.99c0.99-0.99,1.48-2.96,1.48-5.42v-35.01
		c0-2.47-0.49-4.44-1.48-4.93c-0.49-0.99-1.48-0.99-2.96-0.99v-0.49h18.24c16.27,0,26.13,8.87,26.13,24.16
		C669.52,310.61,660.64,319.49,645.85,319.49z M635.99,318.5h9.86c10.85,0,16.76-8.38,16.76-23.17c0-14.79-6.9-23.17-19.23-23.17
		h-7.4V318.5z"/>
	<path class="st0" d="M726.22,294.83c0,7.4-2.47,13.31-6.9,18.24c-4.93,4.44-10.85,6.9-17.26,6.9c-6.9,0-12.82-2.47-17.26-6.9
		c-4.44-4.93-6.9-10.85-6.9-18.24c0-7.4,2.96-13.31,7.89-18.24c4.93-3.94,10.35-6.41,16.76-6.41c6.41,0,11.83,2.47,16.76,7.4
		C723.75,282.02,726.22,287.93,726.22,294.83z M719.32,295.82c0-8.38-1.97-14.79-5.42-19.23c-2.96-3.45-6.9-4.93-11.83-4.93
		c-4.93,0-8.87,1.48-11.83,4.93c-3.45,3.94-4.93,10.35-4.93,18.24c0,7.89,1.48,14.3,5.42,18.74c2.96,3.45,6.41,5.42,11.34,5.42
		c4.93,0,8.87-1.97,12.33-5.92C717.34,309.63,719.32,303.71,719.32,295.82z"/>
	<path class="st0" d="M777.49,271.17v0.49c-1.48,0-2.47,0-2.96,0.49c-0.99,0.99-1.48,2.96-1.48,5.42v41.91h-2.47l-2.47-3.94
		l-29.58-40.43v37.47c0,2.47,0.49,4.44,1.48,5.42c0.99,0.49,1.48,0.99,2.96,0.99v0.49h-10.35v-0.49c1.48,0,2.47-0.49,2.96-0.99
		c0.99-0.99,1.48-2.96,1.48-5.42v-35.01c0-2.47-0.49-3.94-1.48-4.93c-0.49-0.99-1.48-0.99-2.47-0.99h-0.49v-0.49h10.35l28.6,38.95
		v-32.54c0-2.47-0.49-3.94-1.48-4.93c-0.49-0.99-1.48-0.99-2.47-0.99h-0.49v-0.49H777.49z"/>
	<path class="st0" d="M662.12,384.57c-2.47,0.49-5.42,1.48-8.38,1.48c-0.49,0-0.99,0-1.97,0c-3.94,0-10.35-0.49-15.28-3.45
		c-2.47-0.99-4.93-2.96-6.41-5.42c-3.45-4.44-5.42-10.35-5.42-16.76c0.49-8.38,4.93-16.27,12.33-20.71
		c4.44-2.47,9.37-3.45,12.82-3.45c0.99,0,1.97,0.49,2.96,0.49c1.97,0,3.94,0.49,5.92,0.99c0.99,0,1.97,0.49,3.45,0.49v0.49h0.49
		h0.99c0.99,0.49,1.97,0.49,2.47,0h0.49v11.34h-0.49c0-0.49,0-0.99-0.49-1.48c-1.48-3.45-3.45-6.9-6.41-8.38
		c-2.47-1.97-5.92-2.47-8.87-2.47c-4.93,0-9.37,1.48-12.33,4.93c-3.94,3.94-6.41,10.35-5.92,17.75c0,4.44,0.99,9.37,2.47,12.82
		c1.97,3.94,4.44,6.9,7.4,8.87c0.99,0.49,1.97,0.99,2.96,1.48c2.47,0.99,4.93,1.48,7.4,1.48c1.97,0,3.94-0.49,5.42-0.99
		c1.48-0.49,2.96-0.99,4.44-1.97c0.99-0.99,2.47-1.97,3.45-3.45c0.49-0.49,0.99-1.48,1.48-2.47l0.49-0.99h0.49l-1.97,7.89
		C664.59,384.07,663.11,384.57,662.12,384.57z"/>
	<path class="st0" d="M703.54,366.82h-17.75l-4.44,11.34c-0.49,2.47-0.99,4.44,0,5.42c0.99,0.99,1.97,1.48,3.45,1.48h0.49v0.49
		h-12.33v-0.49c2.96,0,4.93-1.97,6.41-5.92l15.78-41.91h2.47l18.24,41.91c1.97,3.45,3.45,4.93,5.42,5.42l0.49,0.49h0.99v0.49h-17.26
		v-0.49c0.49,0,0.99,0,1.48,0c0.99-0.49,1.48-0.49,1.97-1.48c0.49-0.49,0.49-1.97,0-4.44L703.54,366.82z M703.05,365.83l-8.87-21.69
		l-8.38,21.69H703.05z"/>
	<path class="st0" d="M773.55,337.24v0.49c-1.48,0-1.97,0-2.96,0.49c-0.49,0.99-1.48,2.96-1.48,5.42v41.91h-1.97l-2.96-3.94
		l-29.58-40.43v37.47c0,2.47,0.49,4.44,1.48,5.42c0.99,0.49,1.97,0.99,2.96,0.99v0.49h-10.35v-0.49c1.48,0,2.47-0.49,2.96-0.99
		c0.99-0.99,1.48-2.96,1.48-5.42v-35.01c0-2.47-0.49-3.94-1.48-5.42c-0.49-0.49-1.48-0.49-2.47-0.49h-0.49v-0.49h10.35l29.09,38.95
		l-0.49-32.54c0-2.47,0-3.94-1.48-4.93c-0.49-0.99-1.48-0.99-2.47-0.99h-0.49v-0.49H773.55z"/>
	<path class="st0" d="M801.65,385.55h-21.2v-0.49h0.49c0.99,0,1.97-0.49,2.47-0.99c0.99-0.99,1.48-2.96,1.48-5.42v-35.01
		c0-2.47-0.49-4.44-1.48-4.93c-0.49-0.99-1.48-0.99-2.47-0.99h-0.49v-0.49h18.24c16.76,0,26.13,8.87,26.13,24.16
		C824.83,376.68,816.44,385.55,801.65,385.55z M791.79,384.57h9.86c10.35,0,16.76-8.38,16.76-23.17c0-14.79-7.4-23.17-19.72-23.17
		h-6.9V384.57z"/>
	<path class="st0" d="M846.52,337.73c-0.99,0-1.97,0-2.47,0.99c-0.99,0.99-1.48,2.47-1.48,4.93v35.01c0,2.47,0.49,4.44,1.48,5.42
		c0.49,0.49,1.48,0.99,2.47,0.99h0.49v0.49h-15.78v-0.49c1.48,0,2.47-0.49,2.96-0.99c0.99-0.99,1.48-2.96,1.48-5.42v-35.01
		c0-2.47-0.49-3.94-1.48-5.42c-0.49-0.49-1.48-0.49-2.47-0.49h-0.49v-0.49h15.78v0.49H846.52z"/>
	<path class="st0" d="M874.62,385.55h-21.2v-0.49h0.49c0.99,0,1.97-0.49,2.47-0.99c1.48-0.99,1.48-2.96,1.48-5.42v-35.01
		c0-2.47,0-4.44-1.48-4.93c-0.49-0.99-1.48-0.99-2.47-0.99h-0.49v-0.49h18.24c16.76,0,26.62,8.87,26.62,24.16
		C898.29,376.68,889.41,385.55,874.62,385.55z M864.76,384.57h9.86c10.85,0,16.76-8.38,16.76-23.17c0-14.79-6.9-23.17-19.72-23.17
		h-6.9V384.57z"/>
	<path class="st0" d="M954.99,360.9c0,7.4-2.47,13.31-6.9,17.75c-4.93,4.93-10.85,7.4-17.26,7.4c-6.9,0-12.82-2.47-17.26-6.9
		c-4.44-4.93-6.9-10.85-6.9-18.24c0-7.4,2.47-13.31,7.89-18.24c4.93-3.94,10.35-6.41,16.76-6.41c6.41,0,11.83,2.47,16.76,7.4
		C952.52,348.08,954.99,354,954.99,360.9z M948.09,361.89c0-8.38-1.97-14.79-5.42-19.23c-2.96-3.45-6.9-4.93-11.83-4.93
		c-4.93,0-8.87,1.48-11.83,4.93c-3.45,3.94-4.93,10.35-4.93,18.24c0,7.89,1.48,14.3,5.42,18.74c2.47,3.45,6.41,5.42,11.34,5.42
		c4.93,0,8.87-1.97,12.33-5.92C946.11,375.69,948.09,369.78,948.09,361.89z"/>
	<path class="st1" d="M624.65,402.81h9.86c5.42,0,9.37,3.45,9.37,8.38c0,5.42-4.44,8.38-9.86,8.38h-6.41v8.87h-2.96V402.81z
		 M634.02,417.11c3.94,0,6.9-2.47,6.9-5.92c0-3.45-2.47-5.42-6.9-5.42h-6.41v11.34H634.02z"/>
	<polygon class="st1" points="652.76,402.81 671.49,402.81 671.49,405.77 655.71,405.77 655.71,414.15 669.52,414.15 669.52,417.11 
		655.71,417.11 655.71,425.98 671.49,425.98 671.49,428.45 652.76,428.45 	"/>
	<path class="st1" d="M679.87,415.63L679.87,415.63c0-6.9,4.93-13.31,12.82-13.31c4.44,0,6.9,1.48,9.37,3.45l-1.97,2.47
		c-1.97-1.97-3.94-2.96-7.4-2.96c-5.92,0-9.86,4.93-9.86,10.35c0,6.41,3.94,10.85,9.86,10.85c2.96,0,5.92-1.48,7.4-2.47v-6.41h-7.4
		v-2.96h10.35V425c-2.47,1.97-5.92,3.94-10.35,3.94C684.8,428.94,679.87,423.02,679.87,415.63z"/>
	<path class="st1" d="M722.77,402.81h2.47l11.83,25.64h-2.96l-3.45-6.9h-13.81l-2.96,6.9h-2.96L722.77,402.81z M729.67,419.08
		l-5.92-12.82l-5.42,12.82H729.67z"/>
	<path class="st1" d="M743.47,425l1.97-2.47c2.47,2.47,4.93,3.94,8.38,3.94c3.45,0,5.92-1.97,5.92-4.44c0-2.47-1.48-3.94-6.9-4.93
		c-5.42-1.48-8.38-3.45-8.38-7.4c0-3.94,3.45-6.9,8.38-6.9c3.94,0,6.41,0.99,8.87,2.96l-1.48,1.97c-2.47-1.48-4.93-2.47-7.4-2.47
		c-3.45,0-5.42,1.97-5.42,3.94c0,2.47,1.48,3.94,6.9,4.93c5.92,1.48,8.38,3.45,8.38,7.4c0,4.44-3.94,7.4-8.87,7.4
		C749.88,428.94,746.43,427.46,743.47,425z"/>
	<path class="st1" d="M771.58,417.6v-14.79h2.96v14.79c0,5.42,2.96,8.87,7.89,8.87c4.93,0,7.89-2.96,7.89-8.87v-14.79h2.96v14.79
		c0,7.4-4.44,11.34-10.85,11.34C776.02,428.94,771.58,425,771.58,417.6z"/>
	<path class="st1" d="M801.65,425l1.97-2.47c2.47,2.47,5.42,3.94,8.87,3.94c3.45,0,5.42-1.97,5.42-4.44c0-2.47-0.99-3.94-6.41-4.93
		c-5.92-1.48-8.87-3.45-8.87-7.4c0-3.94,3.94-6.9,8.38-6.9c3.94,0,6.41,0.99,9.37,2.96l-1.97,1.97c-2.47-1.48-4.44-2.47-7.4-2.47
		s-5.42,1.97-5.42,3.94c0,2.47,1.48,3.94,6.9,4.93c5.92,1.48,8.38,3.45,8.38,7.4c0,4.44-3.45,7.4-8.38,7.4
		C808.06,428.94,805.1,427.46,801.65,425z"/>
</g>
</svg>
