<?xml version="1.0" encoding="utf-8"?>
<!-- Generator: Adobe Illustrator 28.3.0, SVG Export Plug-In . SVG Version: 6.00 Build 0)  -->
<svg version="1.1" id="Capa_1" xmlns="http://www.w3.org/2000/svg" xmlns:xlink="http://www.w3.org/1999/xlink" x="0px" y="0px"
	 viewBox="0 0 566.96 560.38" style="enable-background:new 0 0 566.96 560.38;" xml:space="preserve">
<style type="text/css">
	.st0{fill:#1D3524;}
	.st1{fill:#9E8B4A;}
</style>
<g>
	<path class="st0" d="M373.36,194.9l-8.32,18.86c31.63,24.97,51.05,64.92,48.83,108.75c-3.33,65.47-55.48,118.74-120.96,123.73
		c-15.54,1.11-29.96-0.55-43.83-4.44c-22.19-6.1-41.61-19.97-52.71-40.5c-0.55-1.11-1.11-1.66-1.11-2.77
		c-11.1-22.19-12.21-47.16-3.88-68.25c1.11-2.77,2.22-4.99,3.33-7.21c13.32-25.52,39.39-41.06,67.69-41.06h1.11l64.36,0.55v77.12
		l-42.72-56.59l-16.09,11.65l46.61,61.59c4.99,6.1,12.76,8.88,19.97,6.1c7.21-2.22,11.65-8.88,11.65-16.65V263.14l-83.78-0.55h-1.11
		c-35.51,0-68.25,19.42-84.89,51.05c-1.66,2.77-3.33,6.1-4.44,9.43c-6.66,16.65-8.32,34.96-5.55,53.27
		c-9.43-18.31-14.98-38.84-14.98-60.48c0-41.61,18.86-78.23,48.83-102.09l-8.32-18.86c-37.73,28.85-62.14,74.9-59.92,127.06
		c2.77,77.12,64.92,139.82,142.04,143.7c86.56,4.99,158.69-64.36,158.69-149.81C433.84,266.47,409.98,222.64,373.36,194.9z"/>
	<path class="st0" d="M160.3,168.82l-8.88-19.42c-33.29,33.85-53.82,79.9-53.82,130.94c0,56.04,24.41,105.97,63.81,140.38
		C137.56,392.98,65.43,264.25,160.3,168.82z"/>
	<path class="st0" d="M406.65,168.82l8.88-19.42c33.29,33.85,53.82,79.9,53.82,130.94c0,56.04-24.97,105.97-63.81,140.38
		C428.85,392.98,501.53,264.25,406.65,168.82z"/>
	<path class="st0" d="M384.46,190.46l8.32-18.86c4.44,3.88,46.05,34.96,46.05,102.09C429.96,241.5,411.09,212.1,384.46,190.46z"/>
	<path class="st0" d="M181.94,190.46l-8.32-18.86c-3.88,3.88-46.05,34.96-46.05,102.09C136.45,241.5,155.31,212.1,181.94,190.46z"/>
	<path class="st1" d="M283.48,172.7c20.53,0,39.95,3.88,57.7,11.65l16.65-84.89l-18.31,18.31c2.22,3.88,3.88,8.32,3.88,13.32
		c0,13.32-10.54,23.86-23.86,23.86c-13.32,0-23.86-10.54-23.86-23.86c0-6.66,2.77-12.76,7.21-17.2l-19.42-19.42l-19.97,19.42
		c4.44,4.44,7.21,10.54,7.21,17.2c0,13.32-10.54,23.86-23.86,23.86c-12.76,0-23.86-10.54-23.86-23.86c0-4.99,1.66-9.43,4.44-13.32
		l-18.31-18.31l16.65,84.89C243.53,176.59,262.95,172.7,283.48,172.7z"/>
</g>
</svg>
