<?xml version="1.0" encoding="utf-8"?>
<!-- Generator: Adobe Illustrator 28.3.0, SVG Export Plug-In . SVG Version: 6.00 Build 0)  -->
<svg version="1.1" id="Capa_1" xmlns="http://www.w3.org/2000/svg" xmlns:xlink="http://www.w3.org/1999/xlink" x="0px" y="0px"
	 viewBox="0 0 1133.91 160.04" style="enable-background:new 0 0 1133.91 160.04;" xml:space="preserve">
<style type="text/css">
	.st0{fill:#1D1D1B;}
	.st1{fill:#9F8D4B;}
</style>
<g>
	<g>
		<g>
			<path class="st0" d="M140.26,59.96c-0.96,0-1.71,0.27-2.3,0.82c-0.85,0.84-1.25,2.24-1.26,4.49v29.49c0,2.25,0.4,3.69,1.26,4.52
				c0.57,0.55,1.32,0.78,2.3,0.78h0.2v0.41H127.4v-0.41h0.18c1,0,1.76-0.24,2.31-0.78c0.86-0.83,1.25-2.27,1.25-4.52V78h-22.63
				v16.76c0,2.25,0.4,3.69,1.25,4.52c0.56,0.55,1.31,0.78,2.29,0.78h0.2v0.41H99.21v-0.41h0.06c1.06,0,1.85-0.23,2.42-0.78
				c0.86-0.83,1.26-2.27,1.26-4.52v-29.5c0-2.24-0.4-3.65-1.26-4.49c-0.57-0.55-1.32-0.81-2.29-0.81h-0.19v-0.41h13.05v0.41h-0.23
				c-0.93,0-1.71,0.28-2.27,0.82c-0.86,0.84-1.25,2.24-1.25,4.49v11.82h22.63V65.26c0-2.25-0.4-3.66-1.26-4.49
				c-0.57-0.55-1.32-0.81-2.28-0.81h-0.21v-0.41h13.05v0.41H140.26z"/>
			<path class="st0" d="M171.22,84.71h-15.17l-3.43,9.45c-0.76,2.32-0.77,3.86-0.05,4.82c0.55,0.75,1.51,1.09,2.94,1.09h0.21v0.41
				h-10.31v-0.41h0.14c2.37,0,4.03-1.5,5.41-4.95l13.18-35.56h2.15l15.48,35.62c1.3,2.8,2.69,4.26,4.5,4.74
				c0.11,0.03,0.23,0.06,0.39,0.08c0.16,0.02,0.59,0.05,0.85,0.08v0.41h-14.68v-0.41c0.35,0,0.9-0.01,1.07-0.03
				c0.87-0.11,1.51-0.4,1.9-0.94c0.57-0.8,0.54-2.03-0.09-3.75L171.22,84.71z M170.85,83.82l-7.76-18.42l-6.69,18.42H170.85z"/>
			<path class="st0" d="M201.85,81.15v13.6c0,2.24,0.4,3.68,1.25,4.53c0.56,0.55,1.31,0.78,2.3,0.78h0.21v0.41h-13.07v-0.41
				c1.07,0.03,1.88-0.21,2.49-0.78c0.86-0.83,1.26-2.27,1.26-4.52V65.28c0-2.25-0.4-3.69-1.26-4.52c-0.58-0.56-1.33-0.8-2.28-0.8
				h-0.21v-0.41h18.03c9.09,0,14.3,3.82,14.3,10.48c0,6.07-4.56,10.06-12.51,10.93l-1.49,0.16l1.28,0.79
				c0.12,0.08,0.23,0.15,0.35,0.23l0.2,0.12c0.18,0.12,0.33,0.22,0.42,0.27c1.5,0.9,2.85,2.09,4.15,3.65
				c0.33,0.38,0.62,0.75,0.9,1.14l0.82,1.14l1.1,1.55c1.24,1.76,2.64,3.75,4.17,5.55l0.12,0.14c1.23,1.46,3.28,3.9,5.89,4.36v0.41
				c-0.71,0-2.93,0-3.92-0.01l-0.93-0.01c-5.89,0-7.79-3.84-10.43-9.16l-0.05-0.11c-0.71-1.44-1.28-2.57-1.94-3.76
				c-0.96-1.76-2.15-3.25-3.54-4.43c-0.58-0.5-1.23-0.96-1.93-1.37l-0.26-0.16c-0.11-0.07-0.24-0.15-0.4-0.24l-0.13-0.09H201.85z
				 M201.85,80.26h7.14c6.26,0,10-3.82,10-10.22c0-3.06-0.73-5.44-2.17-7.09c-1.45-1.65-3.54-2.49-6.24-2.49h-8.73V80.26z"/>
			<path class="st0" d="M260.59,84.71h-15.17l-3.43,9.45c-0.76,2.32-0.77,3.86-0.05,4.82c0.55,0.75,1.51,1.09,2.94,1.09h0.21v0.41
				h-10.31v-0.41h0.14c2.37,0,4.03-1.5,5.41-4.95l13.18-35.56h2.15l15.48,35.62c1.3,2.8,2.69,4.26,4.5,4.74
				c0.11,0.03,0.23,0.06,0.39,0.08c0.16,0.02,0.59,0.05,0.85,0.08v0.41h-14.68v-0.41c0.35,0,0.9-0.01,1.07-0.03
				c0.87-0.11,1.51-0.4,1.9-0.94c0.57-0.8,0.54-2.03-0.09-3.75L260.59,84.71z M260.22,83.82l-7.76-18.42l-6.69,18.42H260.22z"/>
			<path class="st0" d="M312.37,89.24c0,1.4-0.3,2.77-0.92,4.19c-1.34,3.05-4.37,4.89-6.06,5.71c-2.48,1.2-5.37,1.84-8.35,1.84
				c-1.82,0-3.61-0.23-5.32-0.67c-3.5-0.91-6.51-2.26-6.55-2.28c-0.2-0.08-0.43-0.13-0.66-0.13c-0.54,0-0.88,0.23-1.14,0.44h-0.67
				V88.06h0.41l0,0.01c1.69,5.66,4.31,9.21,8,10.86c1.27,0.56,2.68,0.93,4.07,1.07c0.48,0.05,0.98,0.07,1.48,0.07
				c3.44,0,7.81-1.24,9.75-4.72c2.27-4.14,0.01-8.12-3.23-10.23c-1.69-1.12-3.59-1.78-5.26-2.36l-1.88-0.67
				c-4.25-1.49-9.07-3.19-11.76-6.66c-2.47-3.2-2.22-8.31,0.56-11.64c0.9-1.07,2.07-2.05,3.28-2.74c2.28-1.31,5.09-1.98,8.34-1.98
				h0.04c3.1,0,6.48,0.63,9.5,1.77l0.01,0c0.15,0.05,0.57,0.17,0.99,0.17c0.46,0,0.81-0.14,1.04-0.42l0.68,0v9.35h-0.41
				c-0.57-1.68-2.41-5.23-3.98-6.96c-1.23-1.36-3.1-2.33-5.28-2.73c-0.99-0.18-1.94-0.27-2.82-0.27c-0.97,0-1.87,0.11-2.76,0.32
				c-2.94,0.72-6.1,3.24-6.1,7.08c0,5.74,6.83,8.07,9.74,9.07l1.03,0.34c4.03,1.35,8.21,2.74,11.3,5.72
				C311.36,84.34,312.37,86.67,312.37,89.24z"/>
		</g>
		<g>
			<path class="st0" d="M349.03,100.48h-17.62v-0.41h0.21c0.96,0,1.7-0.24,2.28-0.79c0.86-0.84,1.25-2.28,1.25-4.52V65.28
				c0-2.25-0.4-3.69-1.25-4.51c-0.57-0.55-1.32-0.79-2.29-0.79h-0.19v-0.41h15.33c14.05,0,22.11,7.46,22.11,20.45
				C368.85,93.02,361.62,100.48,349.03,100.48z M340.72,99.59h8.31c9.05,0,14.24-7.13,14.25-19.56c0-12.43-6.02-19.56-16.53-19.56
				h-6.03V99.59z"/>
			<path class="st0" d="M416.92,79.79c0,6.06-2.02,11.17-6,15.17c-3.98,3.99-8.86,6.02-14.52,6.02c-5.72,0-10.59-1.98-14.47-5.88
				c-3.89-3.9-5.86-9.03-5.86-15.23c0-6.34,2.28-11.58,6.77-15.57c3.9-3.47,8.63-5.23,14.06-5.23c5.39,0,10.12,1.99,14.06,5.92
				C414.92,68.91,416.92,73.89,416.92,79.79z M410.85,80.58c0-7.19-1.51-12.66-4.5-16.27c-2.42-2.88-5.8-4.33-10.04-4.33
				c-4.01,0-7.27,1.46-9.69,4.33c-2.97,3.5-4.47,8.68-4.47,15.41c0,6.89,1.56,12.27,4.63,15.99c2.4,2.9,5.61,4.37,9.56,4.37
				c4.18,0,7.69-1.6,10.43-4.76C409.48,92.19,410.85,87.23,410.85,80.58z"/>
			<path class="st0" d="M460.28,59.57v0.41h-0.21c-1,0-1.76,0.23-2.31,0.76c-0.72,0.68-1.18,2.37-1.23,4.52l-0.01,35.22h-1.92
				l-2.39-3.39l-24.83-33.85v31.55c0,2.24,0.39,3.62,1.26,4.47c0.58,0.57,1.35,0.82,2.29,0.82h0.19v0.41h-8.68l0-0.41
				c1.1,0.02,1.88-0.21,2.49-0.79c0.85-0.84,1.25-2.28,1.25-4.52V65.28c0-2.24-0.4-3.68-1.26-4.52c-0.57-0.55-1.32-0.78-2.29-0.78
				h-0.19v-0.41l8.77,0l24.12,33.07l-0.02-27.37c0-2.23-0.4-3.66-1.25-4.5c-0.56-0.55-1.31-0.79-2.3-0.79h-0.2v-0.41H460.28z"/>
		</g>
		<g>
			<path class="st0" d="M508.67,99.72c-2.4,0.59-4.76,1.12-7.18,1.23c-0.44,0.02-0.92,0.03-1.53,0.03c-3.59,0-8.79-0.49-13.1-2.8
				c-2.08-1.12-4.02-2.76-5.6-4.75c-2.88-3.62-4.5-8.87-4.33-14.02c0.24-7.37,4.17-14.02,10.5-17.8c3.53-2.09,7.69-2.53,10.55-2.53
				c0.77,0,1.59,0.04,2.45,0.11c1.74,0.15,3.46,0.44,5.11,0.84c0.92,0.19,1.86,0.46,2.77,0.73l0.24,0.07
				c0.12,0.03,0.24,0.07,0.36,0.1c0.24,0.07,0.48,0.14,0.74,0.2c1.09,0.3,1.85,0.2,2.26-0.29l0.54,0v9.64H512v0
				c-0.13-0.37-0.29-0.71-0.46-1.08l-0.06-0.13c-1.28-2.75-2.93-5.76-5.45-7.23c-2.26-1.3-4.88-2.01-7.39-2.01
				c-4.31,0-7.88,1.42-10.61,4.21c-3.38,3.47-5.22,9-5.05,15.16c0.1,3.89,0.96,7.94,2.29,10.84c1.52,3.31,3.56,5.78,6.06,7.35
				c0.85,0.53,1.75,0.99,2.7,1.35c1.85,0.69,3.97,1.06,6.12,1.06c1.62,0,3.19-0.2,4.67-0.6c1.14-0.31,2.31-0.87,3.57-1.71
				c1.05-0.71,2.07-1.68,3.02-2.88c0.51-0.64,0.98-1.36,1.43-2.15l0.45-0.87l0.42,0.11l-1.7,6.77l0,0
				C510.66,99.13,509.36,99.55,508.67,99.72z"/>
			<path class="st0" d="M543.58,84.72h-15.22l-3.45,9.44c-0.76,2.32-0.78,3.85-0.05,4.82c0.55,0.75,1.52,1.09,2.95,1.09h0.21v0.41
				h-10.34v-0.41h0.14c2.37,0,4.05-1.5,5.43-4.95l13.22-35.55h2.16l15.52,35.6c1.3,2.8,2.69,4.26,4.52,4.74
				c0.11,0.03,0.24,0.06,0.39,0.08c0.16,0.02,0.59,0.05,0.85,0.08v0.41h-14.73v-0.41c0.35,0,0.91-0.01,1.07-0.03
				c0.87-0.11,1.51-0.4,1.9-0.94c0.57-0.8,0.54-2.03-0.09-3.75L543.58,84.72z M543.21,83.82l-7.78-18.41l-6.71,18.41H543.21z"/>
			<path class="st0" d="M602.92,59.57v0.41h-0.21c-1,0-1.76,0.23-2.32,0.76c-0.73,0.68-1.19,2.37-1.23,4.52l-0.01,35.22h-1.93
				l-2.39-3.39l-24.91-33.85v31.55c0,2.24,0.39,3.62,1.27,4.47c0.58,0.57,1.36,0.82,2.3,0.82h0.2v0.41h-8.71l0-0.41
				c1.1,0.02,1.89-0.21,2.5-0.79c0.86-0.84,1.26-2.28,1.26-4.52V65.28c0-2.24-0.4-3.68-1.26-4.52c-0.57-0.55-1.33-0.78-2.3-0.78
				h-0.2v-0.41l8.8,0l24.2,33.07l-0.02-27.37c0-2.23-0.4-3.66-1.26-4.5c-0.56-0.55-1.32-0.79-2.3-0.79h-0.2v-0.41H602.92z"/>
			<path class="st0" d="M626.42,100.48h-17.69v-0.41h0.21c0.96,0,1.71-0.24,2.29-0.79c0.86-0.84,1.26-2.28,1.26-4.52V65.28
				c0-2.25-0.4-3.69-1.26-4.51c-0.57-0.55-1.33-0.79-2.3-0.79h-0.2v-0.41h15.39c14.1,0,22.18,7.46,22.18,20.45
				S639.05,100.48,626.42,100.48z M618.07,99.59h8.34c9.08,0,14.29-7.13,14.3-19.56c0-12.43-6.05-19.56-16.59-19.56h-6.05V99.59z"/>
			<path class="st0" d="M664.56,59.97c-0.93,0-1.71,0.25-2.27,0.79c-0.86,0.84-1.26,2.28-1.26,4.52v29.48c0,2.25,0.4,3.69,1.26,4.52
				c0.56,0.55,1.31,0.78,2.3,0.78h0.2v0.41H651.7v-0.41h0.06c1.06,0,1.86-0.23,2.43-0.78c0.86-0.83,1.26-2.27,1.26-4.52V65.28
				c0-2.24-0.4-3.68-1.26-4.52c-0.57-0.55-1.33-0.78-2.3-0.78h-0.2v-0.41h13.09v0.41H664.56z"/>
			<path class="st0" d="M688.21,100.48h-17.69v-0.41h0.21c0.96,0,1.71-0.24,2.29-0.79c0.86-0.84,1.26-2.28,1.26-4.52V65.28
				c0-2.25-0.4-3.69-1.26-4.51c-0.57-0.55-1.33-0.79-2.3-0.79h-0.2v-0.41h15.39c14.1,0,22.18,7.46,22.18,20.45
				S700.85,100.48,688.21,100.48z M679.87,99.59h8.34c9.08,0,14.29-7.13,14.3-19.56c0-12.43-6.05-19.56-16.59-19.56h-6.05V99.59z"/>
			<path class="st0" d="M756.34,79.78c0,6.06-2.03,11.17-6.02,15.17c-3.99,3.99-8.9,6.02-14.57,6.02c-5.74,0-10.62-1.98-14.52-5.88
				c-3.9-3.9-5.88-9.03-5.88-15.23c0-6.34,2.29-11.58,6.8-15.57c3.91-3.47,8.66-5.23,14.11-5.23c5.4,0,10.15,1.99,14.11,5.92
				C754.33,68.91,756.34,73.88,756.34,79.78z M750.25,80.58c0-7.19-1.52-12.66-4.51-16.27c-2.43-2.87-5.82-4.33-10.07-4.33
				c-4.03,0-7.3,1.46-9.72,4.33c-2.98,3.5-4.49,8.68-4.49,15.41c0,6.89,1.56,12.27,4.65,15.99c2.41,2.9,5.63,4.37,9.6,4.37
				c4.19,0,7.71-1.6,10.46-4.76C748.87,92.19,750.25,87.23,750.25,80.58z"/>
		</g>
	</g>
	<g>
		<path class="st1" d="M780.68,69.46h8.09c4.88,0,8.09,2.59,8.09,6.85v0.06c0,4.66-3.89,7.07-8.49,7.07h-5.25v7.63h-2.44V69.46z
			 M788.46,81.22c3.58,0,5.93-1.91,5.93-4.76V76.4c0-3.09-2.32-4.69-5.81-4.69h-5.46v9.51H788.46z"/>
		<path class="st1" d="M819.06,69.46h15.62v2.22H821.5v7.38h11.79v2.22H821.5v7.56h13.34v2.22h-15.78V69.46z"/>
		<path class="st1" d="M856.55,80.32v-0.06c0-5.93,4.35-11.18,10.84-11.18c3.64,0,5.9,1.05,8.06,2.87l-1.57,1.85
			c-1.67-1.45-3.52-2.47-6.58-2.47c-4.79,0-8.21,4.04-8.21,8.86v0.06c0,5.16,3.3,8.98,8.55,8.98c2.47,0,4.76-0.96,6.24-2.16v-5.37
			h-6.58v-2.19h8.92v8.61c-2.01,1.79-5.03,3.3-8.68,3.3C860.75,91.44,856.55,86.5,856.55,80.32z"/>
		<path class="st1" d="M907.47,69.3h2.28l9.85,21.77h-2.62l-2.53-5.71h-11.76l-2.56,5.71h-2.5L907.47,69.3z M913.49,83.17
			l-4.91-11.02l-4.94,11.02H913.49z"/>
		<path class="st1" d="M939.78,87.92l1.51-1.79c2.25,2.04,4.42,3.06,7.41,3.06c2.9,0,4.82-1.54,4.82-3.67v-0.06
			c0-2.01-1.08-3.15-5.62-4.11c-4.97-1.08-7.26-2.69-7.26-6.24v-0.06c0-3.4,2.99-5.9,7.1-5.9c3.15,0,5.4,0.9,7.6,2.66l-1.42,1.88
			c-2.01-1.64-4.01-2.35-6.24-2.35c-2.81,0-4.6,1.54-4.6,3.49v0.06c0,2.04,1.11,3.18,5.87,4.2c4.82,1.05,7.04,2.81,7.04,6.11v0.06
			c0,3.71-3.09,6.11-7.38,6.11C945.18,91.38,942.37,90.24,939.78,87.92z"/>
		<path class="st1" d="M978.38,82.02V69.46h2.44v12.41c0,4.66,2.47,7.29,6.61,7.29c3.98,0,6.52-2.41,6.52-7.13V69.46h2.44v12.38
			c0,6.3-3.61,9.57-9.02,9.57C982.02,91.41,978.38,88.14,978.38,82.02z"/>
		<path class="st1" d="M1018.49,87.92l1.51-1.79c2.25,2.04,4.42,3.06,7.41,3.06c2.9,0,4.82-1.54,4.82-3.67v-0.06
			c0-2.01-1.08-3.15-5.62-4.11c-4.97-1.08-7.26-2.69-7.26-6.24v-0.06c0-3.4,2.99-5.9,7.1-5.9c3.15,0,5.4,0.9,7.6,2.66l-1.42,1.88
			c-2.01-1.64-4.01-2.35-6.24-2.35c-2.81,0-4.6,1.54-4.6,3.49v0.06c0,2.04,1.11,3.18,5.87,4.2c4.82,1.05,7.04,2.81,7.04,6.11v0.06
			c0,3.71-3.09,6.11-7.38,6.11C1023.9,91.38,1021.09,90.24,1018.49,87.92z"/>
	</g>
</g>
</svg>
