<?xml version="1.0" encoding="utf-8"?>
<!-- Generator: Adobe Illustrator 28.3.0, SVG Export Plug-In . SVG Version: 6.00 Build 0)  -->
<svg version="1.1" id="Capa_1" xmlns="http://www.w3.org/2000/svg" xmlns:xlink="http://www.w3.org/1999/xlink" x="0px" y="0px"
	 viewBox="0 0 1080 1080" style="enable-background:new 0 0 1080 1080;" xml:space="preserve">
<style type="text/css">
	.st0{fill:#9E8B4A;}
	.st1{fill:#9E8B4A;stroke:#9E8B4A;stroke-width:2;stroke-miterlimit:10;}
	.st2{fill:#9E8B4A;stroke:#9E8B4A;stroke-width:3;stroke-miterlimit:10;}
</style>
<path class="st2" d="M291.1,528.46c2.86-6.81,5.85-13.57,8.56-20.43c13.74-34.74,27.41-69.5,41.1-104.26
	c4.62-11.74,11.68-14.89,23.34-10.34c11.75,4.58,23.47,9.26,35.22,13.84c7.28,2.84,11.13,7.92,11.11,15.92
	c0,1.15,1.16,2.85,2.24,3.38c9.23,4.55,18.77,6.8,29.35,6.98c20.32,0.36,40.87-0.01,60.64,6.41c1.17,0.38,3.04-0.29,4.15-1.08
	c1.82-1.3,3.32-3.07,4.9-4.7c9.88-10.27,21.87-13.89,35.83-11.52c7.82,1.33,15.66,2.51,23.49,3.77c5.26,0.85,8.2,3.95,7.77,8.18
	c-0.46,4.49-4.16,7.05-9.69,6.28c-8.81-1.23-17.59-2.71-26.39-4.07c-7.41-1.15-13.83,0.96-19.1,6.19
	c-21.08,20.93-43.32,40.44-68.13,56.91c-4.33,2.88-4.32,5.59-0.35,8.88c8.42,6.96,17.95,7.56,27.96,4.55
	c13.02-3.91,23.62-11.88,33.72-20.6c9.49-8.19,17.64-8.02,26.43,0.61c20.44,20.08,44.72,29.14,73.37,25.2
	c4.22-0.58,7.44,0.47,10.76,2.95c19.21,14.32,38.53,28.5,58.12,42.94c10.31-6.62,20.61-13.24,31.27-20.08
	c-13.82-35.05-27.56-69.88-41.45-105.1c-4.76,1.71-9.26,3.01-13.49,4.92c-14.56,6.58-29.55,7.88-45.07,4.37
	c-3.78-0.85-7.67-1.21-11.49-1.89c-4.94-0.88-7.49-3.95-7.02-8.26c0.46-4.24,3.77-6.74,8.79-6.17c5.3,0.61,10.6,1.38,15.82,2.48
	c10.13,2.13,19.91,1.44,29.5-2.56c4.92-2.05,10.04-3.63,14.95-5.71c1.05-0.45,2.19-2.18,2.2-3.32c0.04-7.73,3.55-12.81,10.75-15.61
	c12.51-4.86,24.93-9.95,37.44-14.81c9.03-3.51,16.95-0.12,20.57,8.86c6.22,15.45,12.3,30.96,18.37,46.47
	c2.01,5.13,0.47,9.26-3.82,10.86c-4.02,1.5-7.7-0.5-9.71-5.52c-5.57-13.97-11.05-27.98-16.58-41.96c-0.71-1.79-1.5-3.54-2.37-5.58
	c-13.42,5.31-26.6,10.52-40.08,15.86c16.73,42.41,33.27,84.33,50.05,126.86c13.49-5.3,26.66-10.48,40.23-15.82
	c-5.15-13.07-10.17-25.82-15.2-38.58c-1.01-2.56-2.16-5.07-3-7.68c-1.29-4.02,0.43-7.92,3.9-9.34c3.8-1.55,7.88-0.05,9.58,4.16
	c6.28,15.6,12.52,31.22,18.42,46.96c2.49,6.64-0.62,14.5-7.12,17.27c-13.98,5.95-28.17,11.43-42.39,16.8
	c-4.64,1.75-9.19,0.5-13.37-2.33c-1.15-0.78-3.45-1.26-4.47-0.64c-8.69,5.31-17.21,10.9-25.69,16.35
	c5.39,27.76-7.27,42.91-33.92,40.93c-5.6,20.16-13.18,26.05-34.94,26.74c-0.91,9.48-4.67,17.63-12.91,23.1
	c-8.05,5.35-16.83,6.22-26.34,3.36c-2.81,13.49-10.29,22.3-23.87,25.21c-13.82,2.97-23.37-5.23-33.62-13.15
	c-1.95,2.23-3.83,4.36-5.68,6.52c-7.29,8.47-16.37,12.09-27.34,9.34c-10.93-2.74-17.38-10-19.81-21c-0.26-1.17-1.74-2.92-2.72-2.96
	c-15.9-0.72-24.35-9.6-27.35-24.52c-18.77-2.44-26.13-8.76-29.24-24.99c-25.59-4.25-35.17-19.34-25.5-41.12
	c-1.65-1.21-3.35-2.61-5.19-3.78c-9.42-6-18.82-12.03-28.39-17.79c-1.39-0.84-3.65-0.38-5.49-0.31c-4.23,0.15-8.89,1.7-12.6,0.43
	c-13.29-4.57-26.24-10.13-39.36-15.2c-4.93-1.91-7.37-5.97-9.65-10.28C291.1,533.64,291.1,531.05,291.1,528.46z M404.52,439.57
	c-14.08,35.7-28.16,71.38-42.26,107.14c13.33,8.46,26.15,16.6,39.19,24.88c3.99-4.6,7.74-9.27,11.85-13.6
	c13.99-14.76,38.7-8.98,44.63,10.37c0.61,1.98,0.99,4.03,1.45,5.94c17.89,1.42,24.59,7.11,29.58,24.95
	c16.6,0.3,26.32,8.83,29.25,25.17c12.45-0.28,21.75,4.64,26.76,15.93c5.01,11.28,1.94,21.44-6.11,30.58c4,2.85,7.66,5.51,11.4,8.06
	c0.91,0.62,2.04,0.97,3.11,1.31c6.86,2.14,14.14-0.91,17.27-7.2c3.16-6.33,1.6-12.5-4.3-17.06c-3.72-2.87-7.49-5.68-11.12-8.66
	c-3.94-3.23-4.62-7.16-2.06-10.59c2.63-3.52,6.91-3.82,11.15-0.74c1.83,1.33,3.57,2.8,5.38,4.16c6.2,4.68,12.27,9.57,18.68,13.95
	c6.95,4.75,15.73,3.14,20.31-3.25c4.63-6.45,3.09-14.68-3.76-19.98c-6.02-4.66-12.1-9.24-18.07-13.96
	c-3.89-3.08-4.64-7.21-2.18-10.6c2.64-3.63,6.77-3.98,11.1-0.87c2.1,1.51,4.1,3.17,6.16,4.74c7.1,5.38,14.02,11.02,21.36,16.05
	c6.85,4.69,15.86,2.75,20.22-3.72c4.46-6.62,2.93-14.33-3.87-19.57c-7.18-5.54-14.4-11.02-21.52-16.65
	c-2.78-2.2-4.38-5.43-2.29-8.52c1.42-2.09,4.24-3.86,6.73-4.39c1.74-0.36,4.2,1.32,5.94,2.62c9.99,7.46,19.79,15.18,29.79,22.63
	c7.7,5.73,16.3,4.72,21.49-2.21c4.91-6.56,3.15-15.72-4.36-21.3c-18.07-13.41-36.2-26.76-54.42-39.97
	c-1.64-1.19-4.17-1.86-6.19-1.67c-31.52,2.93-58.3-7.33-80.87-29.04c-3.16-3.04-5-3.16-8.27-0.25
	c-10.95,9.74-22.87,18.08-37.02,22.63c-14.55,4.68-28.44,3.82-41.1-5.53c-13.65-10.08-13.01-24.46,0.69-34.36
	c13.9-10.03,27.16-20.94,40.74-31.41c1.12-0.86,2.53-1.34,3.8-2c-0.4-0.78-0.8-1.56-1.2-2.34c-9.93-0.83-19.84-1.81-29.78-2.45
	c-12.1-0.78-24.31-0.56-36.29-2.14C418.49,445.73,411.82,442.14,404.52,439.57z M395.9,421.66c-13.53-5.34-26.7-10.54-40.23-15.87
	c-16.75,42.46-33.36,84.59-50.06,126.92c13.65,5.38,26.68,10.51,40.22,15.85C362.58,506.11,379.15,464.11,395.9,421.66z
	 M415.64,609.33c1.26-0.52,4.44-0.91,6.08-2.7c7.31-7.98,14.48-16.12,21.07-24.69c3.6-4.69,1.77-11.49-2.89-15.16
	c-4.44-3.5-11.2-3.68-15.11,0.54c-7.03,7.58-13.7,15.51-20.18,23.58c-2.84,3.53-2.68,7.92-0.61,11.95
	C406.09,606.9,409.59,608.97,415.64,609.33z M431.33,621.96c0.73,5.18,3.67,9.55,8.1,11.35c4.9,1.98,9.8,0.94,13.63-3.39
	c6.01-6.78,11.9-13.66,17.64-20.67c4.74-5.79,4.14-12.94-1.12-17.29c-5.22-4.31-12.27-3.57-17.24,2.06
	c-5.78,6.55-11.5,13.16-16.95,19.98C433.56,616.28,432.65,619.28,431.33,621.96z M504.33,684.1c1.22-0.58,4.27-1.15,5.95-2.97
	c7.09-7.74,14.03-15.66,20.49-23.93c3.63-4.65,2.14-11.55-2.31-15.33c-4.44-3.77-11.47-4.1-15.48,0.23
	c-7.13,7.7-13.9,15.76-20.4,24.01c-2.79,3.54-2.41,7.98-0.16,11.94C494.69,682.01,498.27,683.93,504.33,684.1z M473.81,659.69
	c2.53-1.25,5.7-1.92,7.49-3.86c6.89-7.49,13.56-15.21,19.85-23.21c3.82-4.86,2.5-11.79-2.17-15.7c-4.61-3.86-11.32-4.14-15.45,0.3
	c-7.04,7.57-13.7,15.51-20.15,23.59c-2.95,3.7-2.79,8.19-0.34,12.33C465.37,657.08,468.89,659.05,473.81,659.69z"/>
</svg>
