<?xml version="1.0" encoding="utf-8"?>
<!-- Generator: Adobe Illustrator 28.3.0, SVG Export Plug-In . SVG Version: 6.00 Build 0)  -->
<svg version="1.1" id="Capa_1" xmlns="http://www.w3.org/2000/svg" xmlns:xlink="http://www.w3.org/1999/xlink" x="0px" y="0px"
	 viewBox="0 0 1080 1080" style="enable-background:new 0 0 1080 1080;" xml:space="preserve">
<style type="text/css">
	.st0{fill:#9E8B4A;}
	.st1{fill:#9E8B4A;stroke:#9E8B4A;stroke-width:2;stroke-miterlimit:10;}
	.st2{fill:#9E8B4A;stroke:#9E8B4A;stroke-width:3;stroke-miterlimit:10;}
</style>
<g>
	<path class="st2" d="M781.38,598.35c-3.26,5.29-8.07,5.46-13.54,4.51c-22.16-3.84-36.22-16.91-41.91-38.25
		c-4.07-15.27-6.47-30.99-9.65-46.49c-2.57-12.55-8.63-22.7-20.96-29.86c0.86,3.57,1.59,6.17,2.1,8.81
		c2.73,14.18-0.25,27.79-4.26,41.27c-2.37,7.97-4.73,15.94-7.34,23.83c-1.43,4.32-0.42,7.31,3.16,10.18
		c11.27,9.04,22.45,18.21,33.36,27.67c2.39,2.07,4.53,5.37,5.14,8.42c5.49,27.54,10.57,55.17,15.87,82.75
		c0.83,4.3,0.22,7.85-2.77,11.31c-4.92,5.7-7.97,12.3-8.35,20.04c-0.28,5.61-3.28,8.15-9.37,8.2c-11.16,0.09-22.31,0.07-33.47,0.01
		c-8.08-0.04-11.29-3.76-9.69-11.65c2.62-12.95,8.9-23.71,19.78-31.53c0.89-0.64,1.79-1.26,2.67-1.91c0.11-0.08,0.16-0.27,0.5-0.9
		c-1.47-3.71-3.05-7.77-4.67-11.81c-4.73-11.79-9.57-23.54-14.15-35.39c-1.08-2.8-2.7-4.24-5.52-5.03c-4.5-1.27-8.9-2.92-14.44-4.78
		c-0.2,3.9-0.87,7.42-0.48,10.82c1.96,17.16,4.27,34.27,6.24,51.43c0.25,2.17-0.28,4.79-1.36,6.69c-4.24,7.47-6.11,15.38-5.82,23.92
		c0.25,7.23-2.52,10.1-9.71,10.14c-12.1,0.07-24.2,0.09-36.3-0.01c-7.41-0.06-10.38-4-9-11.35c2.31-12.38,8.76-22.4,17.73-30.92
		c1.83-1.74,2.38-3.15,1.76-5.66c-2.86-11.57-5.38-23.23-8.23-34.81c-0.39-1.58-1.58-3.69-2.91-4.2
		c-20.34-7.8-33.45-23.29-44.41-41.15c-0.57-0.94-1.25-1.86-1.58-2.88c-2.35-7.31-6.69-8.8-14.59-8.3
		c-16.22,1.01-32.57-0.15-48.87-0.41c-0.6-0.01-1.2,0-2.29,0c-0.54,6.7-1.12,13.23-1.58,19.76c-1.99,28.2-3.93,56.41-5.96,84.61
		c-0.18,2.49-0.87,4.93-1.31,7.4c-0.91,5.16-0.29,10.04,2.95,14.32c2.16,2.85,3.09,5.8,1.44,9.18c-1.76,3.62-4.93,4.47-8.63,4.47
		c-25.61-0.03-51.22,0.01-76.83-0.04c-6.49-0.01-10.03-2.89-9.67-9.38c0.3-5.47,1.37-11.42,3.97-16.12
		c3.36-6.07,8.3-11.36,13.11-16.47c2.41-2.56,3.96-4.89,4.05-8.45c0.61-23.88,1.25-47.76-4.38-71.25
		c-1.85-7.71-5.18-13.9-12.55-18.31c-14.44-8.66-21.03-22.66-22.22-38.94c-0.85-11.55-0.44-23.21-0.23-34.82
		c0.21-11.52-2.64-22.04-9.1-31.57c-0.85-1.26-1.84-2.42-3.12-4.09c-5.17,8.06-6.89,16.43-5,25.06c1.47,6.69-0.6,11.12-5.58,15.16
		c-11.75,9.52-24.98,12.64-39.74,9.88c-3.88-0.73-5.85-3.31-7.05-6.8c-7.77-22.63-13.41-45.74-16.27-69.52
		c-2.64-22-2.8-43.86,2.9-65.48c3.84-14.58,7.75-16.06,20.12-7.57c2.55,1.75,5.03,3.61,8.36,6.01c0-4.12-0.08-7.48,0.02-10.84
		c0.14-4.45,2.24-7.7,6.78-8.35c38.5-5.54,76.22-4.55,111.29,14.94c14.71,8.18,26.46,20.2,37.95,32.24
		c13.55,14.2,26.59,28.91,39.51,43.68c4.01,4.58,7.89,5.86,13.82,4.35c17.17-4.37,34.39-8.66,51.76-12.1
		c28.5-5.63,55.93-2.86,81.41,12.37c1.32,0.79,3.6,0.62,5.21,0.15c12.41-3.62,24.94-6.44,37.97-6.03
		c27.77,0.87,45.84,15.56,52.53,42.53c3.64,14.68,3.7,29.58,2.33,44.48c-1.41,15.38,1.05,30.02,7.14,44.13
		c0.47,1.1,1.26,2.06,1.9,3.09C781.38,594.58,781.38,596.47,781.38,598.35z M715.98,714.81c3.28-6.54,6.42-12.47,9.22-18.56
		c0.95-2.08,1.81-4.69,1.42-6.82c-4.42-24.4-9.01-48.76-13.83-73.08c-0.52-2.6-2.38-5.37-4.42-7.14
		c-10.55-9.16-21.3-18.12-32.12-26.96c-6.48-5.3-8.21-11.99-6.59-19.82c0.82-3.99,1.84-7.94,2.97-11.86
		c2.72-9.5,6.05-18.85,8.25-28.46c5.76-25.14-2.8-40.68-26.84-50.19c-17.59-6.96-35.8-8.49-54.16-4.98
		c-18.01,3.44-35.77,8.21-53.68,12.17c-17.85,3.95-35.67,5.03-53.53-0.51c-22.42-6.95-37.17-23.94-52.78-39.79
		c-2.87-2.91-2.01-6.79,0.72-9.85c2.55-2.85,7.08-3.39,10.28-0.9c3.09,2.4,5.8,5.27,8.68,7.94c6.22,5.75,12.1,11.92,18.73,17.15
		c9.37,7.4,20.21,11.7,32.55,12.82c-0.33-0.77-0.41-1.27-0.69-1.57c-14.27-15.46-28.29-31.18-42.95-46.27
		c-9.51-9.8-19.92-18.7-32.62-24.46c-20.04-9.08-41.23-11.81-62.93-11.68c-7.92,0.05-15.84,0.83-23.63,1.28c0,5.61,0,10.36,0,15.29
		c0.96-0.12,1.6-0.11,2.19-0.28c29.25-8.4,55.84-1.61,80.83,14.19c4.53,2.86,5.7,7.34,3.28,11.28c-2.41,3.94-6.85,4.84-11.51,2.27
		c-3.71-2.04-7.28-4.36-11.09-6.2c-21.85-10.53-44.04-13.16-66.67-2.4c-6.55,3.12-9.97,2.04-13.29-4.54
		c-3.18-6.31-8.11-10.89-13.98-15.18c-0.47,1.8-0.87,3-1.08,4.23c-0.44,2.63-0.86,5.27-1.12,7.92
		c-3.6,35.73,3.71,69.98,14.29,103.75c0.37,1.18,2.23,2.59,3.48,2.67c6.48,0.44,12.46-1.45,17.63-5.34c1.07-0.8,1.87-2.84,1.74-4.2
		c-1.2-12.49,1.19-24.08,8.16-34.59c5.03-7.58,5.36-15.11,0.54-22.94c-2.82-4.58-1.81-9.05,2.2-11.5c3.88-2.37,8.39-1.15,11.34,3.26
		c4.14,6.19,5.88,13.05,5.88,20.51c0,1.93,0.86,4.29,2.14,5.71c13.8,15.21,20.34,32.86,18.98,53.46c-0.49,7.52-0.52,15.08-0.4,22.61
		c0.26,16.04,5.26,29.36,20.5,37.59c3.95,2.13,7.29,6.66,9.3,10.86c3.01,6.29,5.32,13.13,6.68,19.98
		c4.75,23.9,4.29,48.09,3.28,72.31c-0.27,6.34-1.98,10.95-7.2,14.81c-5.37,3.97-9.7,9.15-12.86,15.87c6.59,0,12.47,0,18.55,0
		c0.81-7.46,3.21-14.09,8.07-19.83c1.45-1.71,2.45-4.3,2.58-6.55c0.72-13.02,1.09-26.06,1.64-39.09c0.27-6.51,3.27-9.79,8.47-9.47
		c4.91,0.3,7.57,3.97,7.36,10.11c-0.51,14.6-1.1,29.21-1.47,43.81c-0.11,4.38-1.28,7.81-5,10.52c-3.36,2.45-5.48,5.9-5.2,10.47
		c7.85,0,15.46,0,22.68,0c3.13-42.22,6.23-84.09,9.34-126.17c-6.29-1.31-12.01-2.49-18.21-3.78c0,2.21,0.05,3.76-0.01,5.31
		c-0.38,10.83-0.78,21.67-1.19,32.5c-0.16,4.31-1.69,7.75-6.26,8.82c-5.54,1.29-9.73-2.62-9.56-9.04
		c0.38-14.76,0.87-29.53,1.38-44.29c0.37-10.67,3.79-13.13,13.96-10.49c31.12,8.1,62.58,12.07,94.67,7.24
		c10.88-1.64,21.43-4.52,30.15-9.1c-2.3-11.5-4.69-22.33-6.57-33.25c-1.07-6.24,1.9-10.26,6.95-10.74c5.17-0.49,8.28,2.74,8.78,9.21
		c1.68,21.76,10.37,40.24,26.06,55.38c16.79,16.19,37.04,26.22,59.25,32.49c4.56,1.29,7.22,3.64,8.93,7.99
		c7.23,18.39,14.68,36.7,22.06,55.04c4.02,9.98,3.16,10.93-6.05,16.7c-5.12,3.21-9.01,8.42-13.33,12.85
		c-0.73,0.74-0.82,2.1-1.32,3.49C704.52,714.81,710.47,714.81,715.98,714.81z M645.22,714.69c2.72-8.05,5.31-15.56,7.75-23.12
		c0.41-1.28,0.44-2.77,0.28-4.13c-1.41-11.85-3.07-23.67-4.31-35.54c-0.93-8.93-4.09-17.93-0.12-26.88c1.38-3.11,0.3-4.63-2.6-6.21
		c-13.9-7.59-26.29-17.15-36.46-29.4c-2.68-3.24-5.16-6.65-7.65-9.88c-7.06,2.71-13.84,5.32-21.82,8.38
		c6.4,8.73,12.02,17.24,18.52,25.01c7.07,8.45,16.06,14.51,26.98,17.18c3.99,0.98,5.99,3.49,6.89,7.42
		c3.57,15.6,7.1,31.21,11.04,46.72c1.49,5.86,0.18,9.82-4.75,13.37c-5.87,4.22-10.21,9.91-13.43,17.07
		C632.89,714.69,639.55,714.69,645.22,714.69z M705.11,474.08c0.89,1.63,0.96,1.98,1.18,2.12c15.5,10.07,23.26,24.8,26.37,42.64
		c2.36,13.57,5.14,27.08,8.28,40.49c1.76,7.52,5.23,14.5,11.26,19.72c2.09,1.81,4.62,3.12,7.86,5.25c-0.3-2.19-0.33-2.97-0.52-3.7
		c-3.25-12.25-4.04-24.62-2.95-37.29c1.16-13.45,1.23-26.97-2.53-40.17c-4.13-14.48-12.38-25.09-27.94-27.83
		C719.55,474.16,712.75,474.48,705.11,474.08z"/>
	<path class="st2" d="M324.83,457.45c0.1-4.93,4.11-8.9,9-8.91c5.02-0.01,9.21,4.28,9.1,9.33c-0.11,5.09-4.37,9.03-9.53,8.8
		C328.41,466.46,324.73,462.51,324.83,457.45z"/>
</g>
</svg>
