<?xml version="1.0" encoding="utf-8"?>
<!-- Generator: Adobe Illustrator 28.3.0, SVG Export Plug-In . SVG Version: 6.00 Build 0)  -->
<svg version="1.1" id="Capa_1" xmlns="http://www.w3.org/2000/svg" xmlns:xlink="http://www.w3.org/1999/xlink" x="0px" y="0px"
	 viewBox="0 0 1080 1080" style="enable-background:new 0 0 1080 1080;" xml:space="preserve">
<style type="text/css">
	.st0{fill:#9E8B4A;}
	.st1{fill:#9E8B4A;stroke:#9E8B4A;stroke-width:2;stroke-miterlimit:10;}
	.st2{fill:#9E8B4A;stroke:#9E8B4A;stroke-width:3;stroke-miterlimit:10;}
</style>
<g>
	<path class="st0" d="M298.62,650.32c4.7-16.95,18.76-25.48,31.97-34.27c23.78-15.83,50.38-22.81,78.92-22.56
		c6.42,0.06,12.85,0.01,20.07,0.01c0-2.44,0.03-4.55,0-6.66c-0.27-18.57,0.15-37.03,5.55-55.07c10.05-33.53,29.59-60.02,58.74-79.24
		c24.42-16.1,51.5-23.41,80.72-22.97c6.09,0.09,12.19,0.01,18.91,0.01c0-6.35,0.04-12.27-0.01-18.19
		c-0.11-14.04,1.25-27.87,4.94-41.48c6.57-24.19,18.7-45.21,36.54-62.68c4.05-3.96,10.17-5.79,15.35-8.61c3.14,0,6.29,0,9.43,0
		c0.85,0.35,1.69,0.77,2.57,1.03c16.76,5.09,24.89,20.79,19.15,37.43c-0.89,2.58-0.13,3.94,1.58,5.63
		c18.02,17.93,36.02,35.88,53.9,53.95c2.22,2.25,3.87,2.46,6.85,1.42c14-4.88,29.22,2,35.19,15.6c0.94,2.13,1.61,4.38,2.41,6.57
		c0,3.14,0,6.29,0,9.43c-4.71,16.95-18.75,25.49-31.97,34.27c-23.93,15.91-50.69,22.89-79.39,22.56
		c-5.97-0.07-11.94,0.03-17.91,0.07c-0.3,0-0.59,0.16-1.69,0.49c0,3.59-0.08,7.44,0.01,11.28c0.47,18.16-0.65,36.16-6.71,53.44
		c-2.84,8.11-6.37,16.01-10,23.81c-2.9,6.23-8.38,8.23-13.44,5.61c-5.05-2.62-6.4-8.01-3.14-14.27
		c7.56-14.51,12.36-29.83,13.85-46.13c0.44-4.84,0.53-9.72,0.54-14.59c0.05-31.42,0.2-62.85-0.03-94.27
		c-0.21-29.25,8.59-54.91,28.84-76.37c1.58-1.67,3-3.73,3.78-5.86c1.44-3.97-0.45-8.31-4.08-10.59c-4.07-2.56-8.64-2.07-12.41,1.79
		c-8.81,9.05-16.25,19.12-22,30.41c-9.3,18.27-13.4,37.69-13.33,58.14c0.12,32.21,0.01,64.42,0.04,96.63
		c0.02,24.49-6.55,46.85-21.9,66.18c-18.95,23.85-43.6,37.43-74.14,39.46c-9.68,0.64-19.43,0.1-29.48,0.1c0,6.94,0,12.98,0,19.3
		c10.51,0,20.98,0.42,31.4-0.1c14.88-0.75,29.07-4.66,42.55-11.06c2.12-1.01,4.25-2.03,6.45-2.86c5.42-2.05,10.21-0.42,12.48,4.12
		c2.35,4.69,0.77,10.28-4.53,12.71c-8.53,3.92-17.2,7.66-26.1,10.6c-15.67,5.18-31.96,6.29-48.39,5.89
		c-4.52-0.11-9.04-0.02-14.2-0.02c0,6.35-0.04,12.27,0.01,18.19c0.11,14.04-1.25,27.87-4.94,41.48
		c-6.57,24.19-18.7,45.21-36.54,62.68c-4.05,3.96-10.18,5.8-15.35,8.61c-3.14,0-6.29,0-9.43,0c-0.25-0.18-0.48-0.48-0.76-0.54
		c-17.94-3.68-27.6-22.76-20.93-38.93c0.41-0.99-0.3-2.97-1.15-3.88c-4.08-4.35-8.71-8.23-12.47-12.82
		c-2.01-2.45-3.51-5.96-3.72-9.1c-0.24-3.61,2.46-6.25,6.07-7.54c4.11-1.47,7.45,0.09,10.28,2.83c4.58,4.45,8.98,9.09,13.94,14.15
		c3.1-5.07,5.7-9.52,8.52-13.83c1.69-2.59,1.16-4.28-0.99-6.41c-14.87-14.68-29.65-29.43-44.3-44.33c-2.37-2.41-4.27-2.73-6.82-0.84
		c-7.67,5.68-15.47,11.19-22.98,17.06c-10.41,8.14-24.84,8.23-35.33,0.15c-5.92-4.56-8.71-10.89-10.98-17.63
		C298.62,656.61,298.62,653.46,298.62,650.32z M593.26,447.49c-15.75,1.09-31.3,0.73-46.29,3.45
		c-55.14,10.03-97.14,59.55-98.29,115.58c-0.71,34.56-0.21,69.14-0.25,103.71c-0.02,17.37-2.82,34.28-11.48,49.45
		c-5.32,9.32-12.39,17.65-18.8,26.34c-3.63,4.93-3.55,10.37,0.5,13.94c4.13,3.65,9.6,3.33,13.91-1.1
		c11.85-12.2,21.02-26.15,27.08-42.08c5.77-15.15,8.04-30.87,8.05-47.05c0.02-35.35-0.41-70.72,0.65-106.05
		c1.17-38.87,28.91-75.4,65.43-89.03c13.16-4.91,26.68-6.9,40.59-7.01c6.23-0.05,12.45-0.01,18.89-0.01
		C593.26,461.06,593.26,455.14,593.26,447.49z M650.64,467.64c7.22,0,14.09-0.03,20.96,0c24.3,0.11,46.91-5.94,67.26-19.3
		c7.17-4.71,13.75-10.4,20.21-16.09c4.37-3.85,4.42-9.5,0.97-13.51c-3.43-3.99-8.91-4.42-13.52-0.94c-1.75,1.32-3.33,2.86-4.97,4.33
		c-9.8,8.8-20.9,15.36-33.27,19.95c-14.54,5.39-29.61,6.59-44.91,6.35c-4.18-0.06-8.37-0.01-12.74-0.01
		C650.64,454.95,650.64,460.87,650.64,467.64z M429.31,612.66c-24.53-1.18-48.48-0.42-71.21,9.74c-13.6,6.08-25.76,14.26-36.5,24.58
		c-5.87,5.64-5.08,13.71,1.67,16.72c4.68,2.09,8.27-0.07,12.01-2.9c8.22-6.22,16.31-12.8,25.24-17.86
		c14.9-8.44,31.46-11.26,48.49-11.37c6.7-0.04,13.4-0.01,20.3-0.01C429.31,624.97,429.31,618.94,429.31,612.66z M495.24,533.23
		c17.44,17.44,34.27,34.27,51.53,51.52c4.7-3.05,9.99-6.47,14.97-9.7c-19.19-19.18-37.82-37.82-56.83-56.82
		C501.68,523.24,498.3,528.48,495.24,533.23z M724.1,412.07c-18.77-18.76-37.45-37.45-56.38-56.38c-2.35,3.84-4.86,8.18-7.62,12.35
		c-1.78,2.69-1.48,4.45,0.91,6.79c12.14,11.85,24.07,23.93,36.07,35.93c12.69,12.69,12.69,12.69,26.95,1.4
		C724.27,411.96,724.41,411.66,724.1,412.07z M575.97,560.84c2.91-4.88,5.97-9.76,8.68-14.82c0.5-0.93-0.01-3.09-0.82-3.91
		c-15.22-15.4-30.52-30.71-45.92-45.92c-0.83-0.82-2.98-1.32-3.91-0.83c-5.07,2.71-9.94,5.77-14.83,8.68
		C538.25,523.12,556.87,541.75,575.97,560.84z M487.41,592.42c12.36,0,24.72,0,36.87,0c-12.42-12.46-24.39-24.47-36.87-36.99
		C487.41,567.98,487.41,580.42,487.41,592.42z M686.27,428.73c-11.85-11.88-23.29-23.34-35.03-35.11c0,11.73,0,23.66,0,35.11
		C662.99,428.73,674.81,428.73,686.27,428.73z M393.48,651.18c11.87,12.01,23.31,23.59,35.3,35.72c0-12.22,0-24.14,0-35.72
		C417.08,651.18,405.27,651.18,393.48,651.18z M592.68,487.37c-11.63,0-23.42,0-35.13,0c11.87,11.79,23.33,23.18,35.13,34.91
		C592.68,510.75,592.68,499.07,592.68,487.37z"/>
	<path class="st0" d="M611.68,602.48c-0.02,5.02-4.2,9.18-9.28,9.23c-5.02,0.05-9.36-4.11-9.49-9.08c-0.13-4.97,4.57-9.66,9.59-9.57
		C607.46,593.14,611.7,597.49,611.68,602.48z"/>
	<path class="st0" d="M366.61,703.03c-4.93,0.06-9.38-4.32-9.44-9.27c-0.06-4.91,4.34-9.38,9.27-9.44c4.91-0.05,9.38,4.34,9.44,9.27
		C375.93,698.51,371.55,702.97,366.61,703.03z"/>
</g>
</svg>
