<?xml version="1.0" encoding="utf-8"?>
<!-- Generator: Adobe Illustrator 28.3.0, SVG Export Plug-In . SVG Version: 6.00 Build 0)  -->
<svg version="1.1" id="Capa_1" xmlns="http://www.w3.org/2000/svg" xmlns:xlink="http://www.w3.org/1999/xlink" x="0px" y="0px"
	 viewBox="0 0 1080 1080" style="enable-background:new 0 0 1080 1080;" xml:space="preserve">
<style type="text/css">
	.st0{fill:#9E8B4A;}
	.st1{fill:#9E8B4A;stroke:#9E8B4A;stroke-width:2;stroke-miterlimit:10;}
	.st2{fill:#9E8B4A;stroke:#9E8B4A;stroke-width:3;stroke-miterlimit:10;}
</style>
<g>
	<path class="st2" d="M505.02,335.59c10.23,2.13,18.66,6.96,23.8,16.37c1.5,2.75,2.7,5.83,3.27,8.9c0.55,2.99,1.87,4.14,4.72,4.78
		c29.12,6.56,54.41,20.35,75.72,41.16c26.13,25.52,42.56,56.25,47.3,92.64c1.54,11.82,1.34,23.86,1.9,35.81
		c0.1,2.1,0.01,4.22,0.01,6.71c7.25,0.69,14.26,1,21.15,2.08c15.48,2.42,30.91,5.14,46.33,7.92c5.45,0.99,9.02,4.49,10.23,9.94
		c1.06,4.77-0.05,9.48-4.09,12.15c-12.37,8.17-24.32,17.4-39.62,19.64c-3.66,0.54-7.42,0.71-11.12,0.65
		c-30.86-0.45-61.73-0.94-92.59-1.58c-3.02-0.06-4.48,0.77-5.48,3.64c-8.46,24.3-23.98,42.61-46.78,54.67
		c-0.81,0.43-1.62,0.94-2.3,1.56c-7.89,7.09-15.76,14.21-23.47,21.19c3.08,1.63,12.39,2.02,19.09,0.66
		c10.72-2.18,19.56-8.19,28.32-14.15c19.86-13.5,34.98-30.91,43.11-53.86c0.22-0.63,0.46-1.25,0.75-1.84
		c1.81-3.64,4.93-5.06,8.14-3.71c2.96,1.24,4.4,4.55,3.11,8.09c-4.29,11.8-9.86,22.94-17.58,32.92
		c-8.12,10.51-17.85,19.34-28.68,26.96c-2.27,1.59-3.26,3.4-3.72,6.1c-2.87,16.48-5.82,32.95-9.04,49.36
		c-0.7,3.58-2.28,7.1-4.01,10.35c-3.48,6.52-9.03,9.83-16.58,9.73c-7.98-0.11-15.97-0.01-23.95-0.03
		c-10.51-0.03-18.96-4.27-24.47-13.21c-7.38-11.98-14.39-24.2-21.3-36.47c-1.64-2.92-3.23-4.48-6.82-4.86
		c-17.32-1.85-30.62-11.26-42.3-23.43c-18.86-19.65-32.2-42.84-43.11-67.55c-1.35-3.06-2.7-4.62-6.53-4.69
		c-15.14-0.25-27.46-11.69-27.68-26.94c-0.36-24.57-1.99-49.26,2.35-73.67c3.86-21.72,11.9-41.91,24.43-60.1
		c5.26-7.64,11.42-14.68,17.36-21.83c2.66-3.21,6.12-3.48,8.8-1.27c2.79,2.3,2.92,5.81,0.27,9.19c-0.99,1.25-2.18,2.35-3.13,3.62
		c-5.78,7.77-12.08,15.23-17.16,23.44c-14.48,23.42-20.9,49.23-21.09,76.65c-0.09,13.44-0.04,26.88-0.01,40.32
		c0.03,12.03,6.92,18.94,18.84,18.67c11.04-0.25,22.07-0.73,33.11-1.14c1.43-0.05,2.85-0.25,4.42-0.4
		c-0.84-9.63-1.9-18.98-2.43-28.36c-2.25-39.45,0.88-78.14,16.97-114.88c10.04-22.94,24.48-42.56,44.28-58.07
		c0.71-0.55,1.32-1.23,2.52-2.36c-12.34,2.58-23.44,6.47-34.07,11.72c-2.02,1-4.03,2.06-6.13,2.88c-3.24,1.28-6.45,0.1-7.82-2.7
		c-1.36-2.78-0.44-6.27,2.56-7.92c4.18-2.3,8.42-4.65,12.9-6.24c9.49-3.39,19.17-6.23,28.7-9.5c1.32-0.45,3-1.86,3.27-3.09
		c3.12-14.22,11.72-22.83,25.86-26.02c0.51-0.11,0.98-0.38,1.47-0.57C499.7,335.59,502.36,335.59,505.02,335.59z M581.07,580.73
		c0.92-10.39,2.06-20.03,2.59-29.71c1.78-32.36-0.25-64.35-10.86-95.3c-10.72-31.28-28.5-57.42-57.42-74.5
		c-16.26-9.6-12.32-9.66-28.8,0.16c-28.95,17.25-46.75,43.54-57.36,75.03c-9.74,28.88-12.23,58.72-10.92,88.95
		c0.51,11.64,1.79,23.25,2.78,35.52C474.6,577.48,527.48,577.55,581.07,580.73z M594.09,580.83c11.88,0.43,24.22,0.96,36.56,1.31
		c11.93,0.34,18.92-6.53,18.96-18.51c0.04-13.57,0-27.14,0.01-40.71c0.01-22.83-4.67-44.66-14.74-65.14
		c-16.75-34.08-42.79-58.53-77.87-73.11c-7.8-3.24-16.06-5.37-24.11-8.01c-0.14,0.35-0.27,0.7-0.41,1.05
		c0.59,0.5,1.17,1.03,1.78,1.5c17.39,13.57,30.76,30.41,40.64,50.06c15.26,30.34,21.18,62.84,21.3,96.44
		C596.28,543.91,594.87,562.09,594.09,580.83z M385.7,593.29c2.94,6.16,5.15,11.1,7.63,15.91c10.95,21.3,23.77,41.26,42.3,56.89
		c14.57,12.29,31.69,16.52,49.16,9.26c23.08-9.6,42.2-25.08,55.55-46.76c6.93-11.25,11.33-23.53,14.41-37.45
		c-5.58,0-10.63,0.29-15.63-0.1c-3.72-0.29-5.14,0.88-6.28,4.51c-8.44,26.73-24.77,47.05-50.14,59.49
		c-11.78,5.78-23.35,4.65-33.6-3.68c-5.02-4.08-9.57-8.86-13.83-13.75c-10.81-12.41-18.93-26.58-26.19-41.28
		c-0.61-1.23-2.04-2.86-3.14-2.91C399.58,593.15,393.21,593.29,385.7,593.29z M656.32,582.33c9.94,0,19.07-0.14,28.19,0.04
		c8.44,0.16,16.42-1.61,23.7-5.74c6.33-3.59,12.32-7.79,18.46-11.72c-0.2-0.41-0.41-0.83-0.61-1.24
		c-20.95-5.35-42.31-7.88-64.25-9.33C661.71,564.08,662.69,573.66,656.32,582.33z M441.27,591.26
		c8.84,19.67,18.62,37.06,31.11,52.84c0.51,0.64,2,1.26,2.56,0.97c5.46-2.8,10.83-5.8,16.59-8.95
		c-11.58-13.63-20.09-27.97-27.56-42.99c-0.47-0.95-2.22-1.75-3.4-1.79C454.49,591.16,448.38,591.26,441.27,591.26z M526.29,732.17
		c-9.45-16.83-18.63-33.17-27.55-49.06c-6.94,2.52-13.46,4.89-20.7,7.53c7.17,11.75,14.17,23.46,21.43,34.99
		c2.62,4.16,6.89,6.25,11.78,6.49C516.12,732.36,521.01,732.17,526.29,732.17z M521.23,590.75c-14.71,0-29.38,0-44.74,0
		c6.92,13.55,14.2,25.86,23.83,36.77C510.55,616.96,519.48,601.21,521.23,590.75z M540.41,731.31c4.71-4.28,13.57-40.37,13.05-50.37
		c-7.55,2.01-15.3,4.01-22.98,6.22c-0.95,0.27-2.01,1.61-2.26,2.64c-1.12,4.63-2.04,9.32-2.86,14.02c-0.18,1.06,0.02,2.42,0.56,3.34
		C530.62,715.15,535.44,723.07,540.41,731.31z M519.79,361.97c-1.98-8.4-10.35-14.65-19.34-14.24c-8.9,0.41-16.94,6.98-17.78,14.24
		C495.04,361.97,507.45,361.97,519.79,361.97z M420.95,592.91c8.32,16.42,17.66,31.54,30.44,44.38
		c-6.8-13.04-13.62-25.88-20.19-38.85C428.13,592.38,428.35,592.27,420.95,592.91z M575.09,592.66c-1.31-0.14-2.25-0.14-3.12-0.36
		c-3.81-0.95-5.34,0.65-6.11,4.39c-1.04,5.04-2.72,9.96-4.26,14.89c-0.91,2.91-2.07,5.75-3.12,8.61
		C566.14,612.4,571.3,603.26,575.09,592.66z"/>
	<path class="st2" d="M402.39,408.63c-1.11-0.87-3.62-1.87-4.2-3.54c-0.65-1.87-0.3-5.09,0.97-6.4c3.11-3.19,6.88-5.83,10.64-8.29
		c2.42-1.59,5.17-1.2,7.25,1.05c2.05,2.21,2.69,5.21,0.58,7.2c-3.73,3.52-8.08,6.38-12.22,9.45
		C404.94,408.44,404.14,408.34,402.39,408.63z"/>
	<path class="st2" d="M429.83,528.15c0.59-8.48,1.11-16.97,1.8-25.45c0.32-3.95,3.03-6.42,6.42-6.26c3.43,0.16,5.68,2.82,5.59,6.88
		c-0.29,14.35-0.62,28.7-0.99,43.04c-0.11,4.27-2.2,6.64-5.76,6.79c-3.64,0.16-6.18-2.29-6.31-6.64
		c-0.19-6.11-0.05-12.23-0.05-18.34C430.29,528.17,430.06,528.16,429.83,528.15z"/>
	<path class="st2" d="M434.67,482.67c0.72-2.95,1.47-7.14,2.81-11.14c1.06-3.16,3.76-4.43,7.03-3.55c3.28,0.88,4.84,3.36,4.36,6.62
		c-0.56,3.78-1.57,7.51-2.48,11.23c-0.85,3.47-3.06,5.31-6.69,4.58C436.28,489.72,434.47,487.49,434.67,482.67z"/>
</g>
</svg>
