<?xml version="1.0" encoding="utf-8"?>
<!-- Generator: Adobe Illustrator 28.3.0, SVG Export Plug-In . SVG Version: 6.00 Build 0)  -->
<svg version="1.1" id="Capa_1" xmlns="http://www.w3.org/2000/svg" xmlns:xlink="http://www.w3.org/1999/xlink" x="0px" y="0px"
	 viewBox="0 0 1080 1080" style="enable-background:new 0 0 1080 1080;" xml:space="preserve">
<style type="text/css">
	.st0{fill:#9E8B4A;}
	.st1{fill:#9E8B4A;stroke:#9E8B4A;stroke-width:2;stroke-miterlimit:10;}
	.st2{fill:#9E8B4A;stroke:#9E8B4A;stroke-width:3;stroke-miterlimit:10;}
</style>
<g>
	<path class="st1" d="M575.85,298.28c6.4,2.05,10.97,6.42,14.91,11.64c9.07,12.01,19.2,23.37,27.01,36.16
		c13.41,21.96,12.8,45.12,1.51,67.96c-6.4,12.94-13.49,25.52-19.98,38.41c-3.31,6.57-4.71,13.65-2.89,21.03
		c1.39,5.62,5.49,8.79,11.25,8.77c5.3-0.01,10.23-3.72,11.48-8.79c1-4.04-0.19-7.3-3.43-10.05c-4.48-3.8-5.12-7.51-2.28-10.89
		c2.81-3.34,6.89-3.25,11.2,0.24c9.23,7.48,11.46,18.15,6.07,29.15c-5.23,10.67-17.24,16.46-28.71,13.81
		c-1.81-0.42-3.6-0.94-5.35-1.41c-3.13,16.16-6.2,32.08-9.21,47.63c5.79,1.77,12.02,3.68,18.84,5.76
		c8.1-8.23,18.32-11.94,30.13-6.59c10.18,4.61,14.61,13.31,14.81,24.66c14.67,2.46,22.99,11,23.98,26.52
		c8.14,0.72,15.12,3.91,19.94,10.73c4.72,6.68,5.4,14.19,3.55,22.32c9.05,2.65,14.89,8.59,18.05,17.17
		c11.21-6.17,16.22-5.57,25.63,2.79c6.34,5.64,12.77,11.18,19.07,16.87c8.92,8.06,8.94,18.66-0.25,26.42
		c-32.29,27.29-64.65,54.49-97.07,81.63c-9.21,7.71-19.72,5.98-26.1-4.11c-5.04-7.96-9.97-15.99-14.79-24.09
		c-1.5-2.53-2.47-5.37-3.91-8.57c-8.94,0.61-18.3,1.25-27.66,1.9c-0.63,0.04-1.26,0.25-1.87,0.2c-8.5-0.8-14.94,2.35-20.23,9.15
		c-3.45,4.44-7.86,4.42-11.03,1.21c-2.92-2.96-2.55-6.96,0.99-10.89c0.11-0.12,0.24-0.21,0.33-0.34
		c6.9-9.35,15.74-13.86,27.76-13.28c9.04,0.43,18.17-1.06,27.26-1.76c8.77-0.68,16.46-4.48,24.74-12.27
		c-19.68-26.92-39.39-53.89-59.39-81.25c-1.96,3.06-3.57,5.84-5.44,8.44c-2.9,4.03-6.69,4.96-10.14,2.72
		c-3.42-2.22-4.29-6.37-1.53-10.35c5.02-7.25,7.24-15.14,7.18-23.93c-0.01-2.16,1.42-4.89,3.07-6.4c7.51-6.84,18.96-6.72,26.63,0.23
		c3.83,3.47,7.14,7.52,10.76,11.22c4.79,4.89,9.16,4.73,14.73-0.43c6.26-5.81,7.05-10.09,2.28-15.32
		c-9.21-10.1-18.5-20.15-27.99-29.99c-6.71-6.95-16.01-7.47-23.31-1.15c-7.48,6.48-14.76,13.23-21.56,20.4
		c-3.14,3.31-5.43,7.7-7.21,11.97c-8.94,21.43-17.45,43.04-26.48,64.44c-1.55,3.68-4.33,7.33-7.49,9.77
		c-41.23,31.96-82.64,63.7-124,95.49c-1.23,0.95-2.42,1.95-4.29,3.46c2,0.16,3.29,0.35,4.58,0.35c44.8,0.02,89.6,0.06,134.39-0.11
		c2.3-0.01,4.77-1.59,6.82-2.95c2.06-1.37,3.53-3.59,5.54-5.06c2.92-2.13,6.01-1.78,8.59,0.68c2.58,2.46,3.35,5.79,1.07,8.52
		c-5.86,7.01-11.16,13.52-22.52,13.37c-52.02-0.71-104.05-0.31-156.08-0.31c-1.57,0-3.44,0.46-4.64-0.22
		c-2.16-1.24-4.83-2.85-5.59-4.92c-0.68-1.84,0.69-4.64,1.65-6.8c0.52-1.15,2.06-1.87,3.18-2.73c47.2-36.31,94.43-72.59,141.56-109
		c2.09-1.62,3.89-4.09,4.92-6.54c7.72-18.54,15.14-37.21,22.8-55.77c2.85-6.91,6.1-13.66,9.1-20.31c-12.64,0-25.85,0-38.64,0
		c-0.65,5.27-0.45,10.75-2.11,15.59c-3.69,10.76-12.16,15.98-23.25,17.03c-8.66,0.82-17.21-4.45-21.68-13.08
		c-2.2-4.24-1.33-8.2,2.24-10.25c3.46-1.98,6.99-0.89,9.66,2.98c4.25,6.16,6.95,7.4,12.31,5.65c5.32-1.74,8.66-6.33,8.52-11.69
		c-0.15-5.49-3.38-9.23-9.3-11.01c-8.05-2.42-15.92-1.14-23.62,1.3c-12.26,3.89-24.31,8.46-36.63,12.1
		c-12.16,3.59-24.6,4.82-37.23,1.93c-16.58-3.8-29.78-13.15-41.12-25.26c-7.94-8.48-15.4-17.43-22.76-26.43
		c-8.35-10.21-6.6-22.14,4.14-29.86c12.23-8.78,25.59-10.31,39.88-6.05c9.33,2.79,11.48,2.52,16.96-1.18
		c-3.52-4.21-6.93-8.46-10.61-12.47c-0.58-0.64-2.51-0.62-3.53-0.2c-6.75,2.79-11.63,1.79-16.42-3.71
		c-2.68-3.08-5.28-6.24-7.91-9.37c-6.77-8.07-6.25-14.74,1.79-21.51c21.88-18.43,43.78-36.82,65.67-55.23
		c30.92-25.99,61.83-51.98,92.74-77.98c8.56-7.2,15-6.67,22.15,1.87c2.22,2.65,4.45,5.3,6.66,7.95c6.11,7.3,6.21,12.34,0.12,20.1
		c3.73,4.45,7.52,8.97,11.47,13.67c4.03-3.01,4.7-6.99,4.61-11.34c-0.14-6.57-1.12-13.31-0.05-19.69
		c2.37-14.05,9.27-25.22,23.44-30.48C570.82,298.28,573.33,298.28,575.85,298.28z M358.13,470.94c7.25-6.1,14.16-11.99,21.17-17.77
		c4.23-3.49,8.56-3.41,11.24-0.02c2.56,3.23,1.81,7.24-2.12,10.7c-3.62,3.19-7.33,6.27-11.36,9.7
		c12.15,14.32,23.88,28.44,35.94,42.27c9.26,10.62,20.36,19.1,32.63,26.04c29.32,16.57,60.84,22,94.07,18.26
		c9.89-1.11,20.74-0.12,27.66-9.82c1.23-1.73,2.91-3.34,3.54-5.28c2.3-7.16,4.5-14.38,6.28-21.69
		c9.77-40.03,6.09-78.49-15.83-113.85c-8.3-13.39-19.33-25.09-29.22-37.47c-4.57-5.71-9.4-11.21-14.18-16.88
		c-1.15,0.91-1.9,1.47-2.62,2.07c-21.29,17.89-42.58,35.78-63.87,53.67c-11.79,9.91-23.54,19.85-35.37,29.7
		c-3.98,3.32-8.15,3.2-10.86-0.03c-2.78-3.31-2.15-7.06,1.82-10.68c0.58-0.53,1.19-1.02,1.79-1.53
		c26.57-22.35,53.15-44.69,79.72-67.04c9.95-8.37,19.88-16.76,30.09-25.36c-2.96-3.47-5.64-6.61-8.51-9.97
		c-53.66,45.14-106.89,89.92-160.44,134.96C352.59,464.35,355.28,467.55,358.13,470.94z M755.59,676.62
		c-2.38-2.58-3.15-3.56-4.07-4.38c-4.93-4.39-9.87-8.77-14.84-13.11c-8.36-7.31-8.4-7.34-16.78-0.3
		c-27.68,23.25-55.31,46.56-83.04,69.75c-2.75,2.29-3.07,4.14-1.15,7.12c4.76,7.39,9.31,14.93,13.82,22.47
		c1.71,2.86,3.41,3.22,5.97,1c5.58-4.84,11.28-9.54,16.93-14.29c26.11-21.94,52.2-43.9,78.36-65.79
		C752.09,677.99,753.88,677.48,755.59,676.62z M589.34,437.7c0.47,0.05,0.94,0.09,1.4,0.14c5.7-10.78,11.79-21.38,17.01-32.39
		c7.61-16.05,7.92-32.37,0.08-48.6c-7.91-16.38-20.62-29.14-32.21-42.72c-2.49-2.92-5.58-2-8.25,0.56
		c-6.91,6.65-10.13,14.92-9.07,24.25c1.35,11.84,1.1,22.93-8.77,32.02C567.45,390.7,582.16,411.97,589.34,437.7z M446.4,559.69
		c0.05-0.51,0.1-1.01,0.15-1.52c-24.15-11.5-42.68-29.54-58.77-50.28c-2.75,1.4-5.05,2.72-7.48,3.77
		c-8.02,3.5-15.98,1.85-23.91-0.47c-9.61-2.81-18.6-1.68-26.86,4.18c-3.91,2.77-4.71,5.61-1.71,9.08
		c9.33,10.8,18.31,22.02,28.54,31.92c14.82,14.33,32.8,20.17,53.26,14.69C422.01,567.76,434.15,563.51,446.4,559.69z M585.1,605.21
		c-0.48,0.6-0.95,1.2-1.43,1.8c22.28,30.48,44.56,60.97,66.99,91.66c2.75-2.34,4.99-4.24,7.44-6.33
		c-10.98-7.43-14.26-17.47-11.51-29.66c-12.32-4.23-18.62-12.67-19.15-25.63c-8.06-0.82-14.71-4-19.84-10.4
		c-4.97-6.21-10.23-12.22-15.72-17.97C590.23,606.94,587.39,606.33,585.1,605.21z M641.03,637.67c0.73,4.94,2.93,8.26,6.85,10.22
		c3.75,1.88,7.86,1.97,11.09-0.9c7.99-7.07,15.92-14.23,23.47-21.75c4.51-4.49,4.19-11.08,0.11-15.27
		c-4.24-4.36-10.78-4.54-15.67-0.11c-7.33,6.64-14.63,13.32-21.64,20.29C643.28,632.11,642.4,635.14,641.03,637.67z M704.3,650.52
		c-0.73-5.16-2.89-8.5-6.85-10.42c-3.96-1.92-8.03-1.65-11.41,1.4c-7.58,6.82-15.24,13.57-22.41,20.8
		c-2.09,2.11-3.38,5.67-3.68,8.71c-0.41,4.18,2.17,7.29,5.97,9.31c3.78,2.01,6.39,0.28,9.19-2.14c8.07-6.97,16.4-13.64,24.39-20.7
		C701.55,655.66,702.72,652.86,704.3,650.52z M630.63,622.41c2.06-1.05,3.28-1.38,4.1-2.14c7.74-7.1,15.59-14.1,23.04-21.49
		c4.65-4.62,3.97-11.88-0.85-15.85c-5.22-4.3-11.74-3.32-16.28,2.47C648.14,599.44,646.53,605.78,630.63,622.41z M630.54,574.61
		c7.4-6.51,8.38-13.5,3.04-18.62c-5.06-4.85-11.97-3.91-17.8,2.71C620.6,563.91,625.46,569.15,630.54,574.61z"/>
	<path class="st1" d="M539.97,442.86c-0.8,7.81-1.46,15.63-2.46,23.41c-0.36,2.8,0.17,4.62,2.45,6.44
		c6.14,4.89,12.01,10.12,18.06,15.12c3.06,2.52,4.63,5.54,3.65,9.49c-0.95,3.85-3.92,5.48-7.49,6.27
		c-7.5,1.66-14.97,3.49-22.53,4.84c-3.25,0.58-4.78,2.13-5.89,5.08c-2.65,7.04-5.66,13.94-8.46,20.93c-1.44,3.6-3.61,6.28-7.77,6.56
		c-4.15,0.28-6.65-2.05-8.59-5.44c-3.66-6.4-7.58-12.65-11.1-19.13c-1.58-2.9-3.41-4.41-6.85-4.54c-7.21-0.28-14.4-1.01-21.61-1.48
		c-4.1-0.27-7.94-1.09-9.67-5.37c-1.7-4.21,0.16-7.53,3.01-10.62c5.1-5.54,10.21-11.1,14.97-16.94c1.21-1.48,1.82-4.2,1.44-6.1
		c-1.47-7.37-3.44-14.65-5.24-21.96c-0.98-3.97-1.35-7.85,2.31-10.78c3.42-2.75,6.99-1.94,10.62-0.31
		c7.01,3.14,14.01,6.33,21.16,9.13c1.68,0.66,4.31,0.47,5.89-0.43c6.95-3.96,13.68-8.3,20.47-12.53c3.15-1.96,6.76-3.04,9.62-0.48
		c2.3,2.06,3.47,5.37,5.14,8.13C540.73,442.39,540.35,442.62,539.97,442.86z M508.06,519.72c2.47-6.04,4.7-10.89,6.44-15.91
		c1.69-4.84,4.85-7.37,9.83-8.24c5.3-0.93,10.52-2.24,16.71-3.59c-4.58-3.87-8.18-7.36-12.23-10.23c-5.16-3.66-6.59-8.31-5.59-14.31
		c0.8-4.8,1.04-9.68,1.62-15.41c-5.54,3.43-10.28,6.16-14.8,9.23c-4.08,2.77-8.03,2.9-12.4,0.81c-4.85-2.32-9.83-4.35-15.78-6.96
		c1.55,6.33,2.66,11.5,4.09,16.58c1.37,4.83,0.55,8.81-3.07,12.47c-3.8,3.83-7.22,8.03-11.45,12.78c6.69,0.5,12.26,1.04,17.84,1.29
		c4.31,0.19,7.4,1.9,9.52,5.75C501.58,509,504.62,513.89,508.06,519.72z"/>
</g>
</svg>
