<?xml version="1.0" encoding="utf-8"?>
<!-- Generator: Adobe Illustrator 28.3.0, SVG Export Plug-In . SVG Version: 6.00 Build 0)  -->
<svg version="1.1" id="Capa_1" xmlns="http://www.w3.org/2000/svg" xmlns:xlink="http://www.w3.org/1999/xlink" x="0px" y="0px"
	 viewBox="0 0 1080 1080" style="enable-background:new 0 0 1080 1080;" xml:space="preserve">
<style type="text/css">
	.st0{fill:#9E8B4A;}
	.st1{fill:#9E8B4A;stroke:#9E8B4A;stroke-width:2;stroke-miterlimit:10;}
	.st2{fill:#9E8B4A;stroke:#9E8B4A;stroke-width:3;stroke-miterlimit:10;}
</style>
<path class="st2" d="M285.88,681.29c4.71-9.28,9.75-18.41,14.01-27.9c2.94-6.54,6.82-10.37,14.36-9.13c0.92,0.15,1.91-0.1,3.44-0.19
	c0-2.18,0-4.12,0-6.05c0-76.77,0-153.55,0-230.32c0-12.99,5.8-18.79,18.77-18.81c4.14-0.01,8.28-0.13,12.41,0.04
	c9.16,0.37,15.4,6.79,15.5,15.98c0.1,9.77,0.02,19.53,0.02,29.55c16.03,5.37,31.84,10.68,47.65,15.97
	c25.7,8.6,51.4,17.18,77.09,25.78c1.56,0.52,3.76,0.78,4.45,1.91c1.5,2.45,3.2,5.45,3.02,8.1c-0.26,3.64-3.46,5.56-7.22,5.27
	c-2.1-0.16-4.19-0.9-6.22-1.58c-20.36-6.79-40.71-13.61-61.62-20.62c-1.79,5.28-3.51,10.36-5.42,16.02
	c6.75,2.3,13.26,4.52,19.76,6.74c2.03,0.69,4.11,1.28,6.09,2.11c3.92,1.65,5.46,4.75,4.55,8.83c-0.85,3.84-4.62,5.97-8.9,5.19
	c-1.61-0.29-3.18-0.89-4.74-1.41c-21.63-7.21-43.26-14.43-64.89-21.65c-0.92-0.31-1.85-0.56-3.22-0.98c0,22.58,0,44.79,0,67.52
	c8.37-2.75,16.51-5.38,24.62-8.09C496.56,507.8,603.7,472,710.89,436.31c3.7-1.23,5.24-2.76,5.03-6.9
	c-0.4-8.11-0.18-16.24-0.1-24.37c0.1-9.43,6.41-15.84,15.86-16.13c4.46-0.13,8.94-0.06,13.4-0.02c11.22,0.09,17.42,6.34,17.42,17.67
	c0.01,77.1,0.01,154.21,0.01,231.31c0,1.95,0,3.9,0,5.6c0.76,0.4,1.07,0.72,1.32,0.68c9.61-1.62,14.4,3.42,17.74,11.79
	c3.06,7.66,7.29,14.85,10.93,22.28c3.79,7.75,0.79,12.85-7.7,12.87c-30.45,0.06-60.9,0.06-91.35,0c-8.54-0.02-11.56-5.11-7.74-12.86
	c4.24-8.61,8.87-17.04,12.75-25.81c2.63-5.93,6.26-9.12,12.93-8.16c1.25,0.18,2.56-0.13,4.4-0.24c0-10.98,0-21.71,0-32.44
	c0-10.41,0-10.41-9.87-13.7c-38.09-12.7-76.19-25.4-114.28-38.1c-0.94-0.31-1.89-0.6-2.82-0.95c-4.74-1.81-6.79-5.52-5.35-9.65
	c1.47-4.21,5.22-6,10.03-4.44c11.79,3.83,23.53,7.79,35.29,11.7c9.85,3.27,19.69,6.53,29.91,9.92c1.82-5.41,3.49-10.39,5.35-15.94
	c-7.03-2.4-13.83-4.73-20.63-7.05c-1.41-0.48-2.85-0.87-4.24-1.4c-4.64-1.76-6.79-5.64-5.4-9.68c1.39-4.06,5.38-5.93,10.12-4.36
	c21.65,7.15,43.26,14.41,64.89,21.61c2.16,0.72,4.35,1.32,7,2.12c0-6.34-0.04-12.12,0.01-17.91c0.05-5.85,2.78-9.14,7.46-9.09
	c4.58,0.05,7.4,3.45,7.4,9.25c0.03,34.66,0.02,69.31,0.02,103.97c0,1.95,0,3.89,0,6.12c5.74,0,10.95,0,16.55,0
	c0-79.89,0-159.7,0-239.85c-5.27,0-10.48,0-16.55,0c0,1.84,0,3.74,0,5.64c0,28.85,0,57.7,0,86.56c0,1.49,0.1,3.01-0.11,4.47
	c-0.61,4.22-3.87,6.94-7.92,6.56c-4.26-0.4-6.64-2.92-6.79-7.14c-0.18-5.12-0.04-10.26-0.04-16.12c-2.08,0.59-3.74,0.99-5.36,1.53
	c-113.76,38-227.5,76.04-341.31,113.9c-3.97,1.32-4.93,3.09-4.85,6.97c0.24,12.39,0.09,24.78,0.09,36.91
	c0.79,0.42,1.1,0.73,1.35,0.69c9.54-1.55,14.42,3.32,17.76,11.75c3.09,7.82,7.47,15.13,11.17,22.72c3.59,7.37,0.42,12.47-7.86,12.49
	c-30.45,0.06-60.9-0.02-91.35,0.08c-4.22,0.01-7.22-1.65-9.59-4.9C285.88,684.6,285.88,682.95,285.88,681.29z M349.23,644.01
	c0-80.07,0-159.86,0-239.82c-5.62,0-10.96,0-16.27,0c0,80.17,0,159.95,0,239.82C338.56,644.01,343.77,644.01,349.23,644.01z
	 M664.06,485.41c-1.85-5.56-3.54-10.65-5.35-16.08c-25.6,8.55-50.83,16.97-76.45,25.52c1.91,5.7,3.61,10.76,5.4,16.08
	C613.44,502.32,638.54,493.93,664.06,485.41z M497.95,540.89c-1.92-5.68-3.64-10.76-5.44-16.07c-25.74,8.61-50.91,17.02-76.39,25.54
	c1.87,5.54,3.58,10.62,5.43,16.08C447.17,557.86,472.21,549.49,497.95,540.89z M512.11,536.17c20.76-6.94,40.87-13.66,61.34-20.5
	c-1.89-5.65-3.58-10.71-5.39-16.11c-20.81,6.97-40.9,13.7-61.29,20.53C508.64,525.71,510.29,530.69,512.11,536.17z M305.55,675.89
	c23.97,0,47.17,0,71.06,0c-2.64-5.35-4.9-10.26-7.52-14.97c-0.53-0.95-2.41-1.62-3.67-1.63c-16.19-0.11-32.38-0.12-48.57,0.02
	c-1.35,0.01-3.32,0.89-3.93,1.97C310.33,665.84,308.15,670.63,305.55,675.89z M774.67,675.93c-2.62-5.31-4.88-10.22-7.49-14.94
	c-0.53-0.96-2.38-1.69-3.62-1.7c-16.35-0.11-32.71-0.1-49.06-0.01c-1.13,0.01-2.83,0.6-3.3,1.45c-2.64,4.85-4.99,9.86-7.63,15.2
	C727.61,675.93,750.8,675.93,774.67,675.93z M364.41,450.24c0,5.58-0.1,10.51,0.08,15.44c0.04,1.02,0.9,2.62,1.74,2.91
	c11.75,4.09,23.57,7.99,35.72,12.06c1.86-5.61,3.54-10.68,5.34-16.12C392.85,459.73,378.87,455.06,364.41,450.24z M678.26,480.67
	c12.11-4.04,23.69-7.84,35.21-11.85c1.01-0.35,2.17-2,2.22-3.1c0.24-4.93,0.1-9.88,0.1-15.44c-14.52,4.85-28.55,9.53-42.88,14.32
	C674.72,470.03,676.37,475.01,678.26,480.67z M364.41,585.48c14.54-4.84,28.52-9.49,42.89-14.28c-1.84-5.55-3.54-10.65-5.34-16.1
	c-12.07,4.02-23.77,7.85-35.4,11.9c-0.98,0.34-2,2.11-2.06,3.26C364.28,575.03,364.41,579.81,364.41,585.48z M715.79,585.44
	c0-5.83,0.11-10.62-0.08-15.4c-0.04-1.04-0.93-2.67-1.8-2.97c-11.75-4.08-23.57-7.96-35.68-12c-1.85,5.64-3.52,10.74-5.29,16.1
	C687.32,575.95,701.17,580.57,715.79,585.44z"/>
</svg>
